<?xml version="1.0" encoding="UTF-8"?>
<svg width="33px" height="52px" viewBox="0 0 33 52" version="1.1" xmlns="http://www.w3.org/2000/svg" xmlns:xlink="http://www.w3.org/1999/xlink">
    <!-- Generator: sketchtool 55.2 (78181) - https://sketchapp.com -->
    <title>99FE4B0F-8E3E-40BD-9F74-CB6CFD0B9013</title>
    <desc>Created with sketchtool.</desc>
    <g id="Final-Design" stroke="none" stroke-width="1" fill="none" fill-rule="evenodd">
        <g id="Desktop-White-1" transform="translate(-789.000000, -359.000000)">
            <g id="PRoducts" transform="translate(401.000000, 335.000000)">
                <g id="bl" transform="translate(340.000000, 0.000000)">
                    <g id="business-loan" transform="translate(49.000000, 24.000000)">
                        <path d="M11.0147227,36.2053192 C10.3545636,36.1997301 9.79022273,35.6897301 9.77190455,35.0351137 C9.66058636,30.9453329 6.47463182,28.4651959 6.47463182,28.4651959 L6.42249545,28.4232781 C2.07545,25.3192644 -0.576459091,20.0271411 0.10695,14.1740178 C0.922813636,7.18142877 6.61765455,1.56793562 13.6729727,0.794552055 C22.9814273,-0.224749315 30.8603591,6.97463425 30.8603591,15.9988397 C30.8603591,20.9430452 28.4952,25.3402233 24.8252227,28.1368397 L24.7611091,28.1899356 C24.7611091,28.1899356 22.5939273,29.9029767 21.5582455,32.6471959 C21.5582455,32.6471959 21.4363591,33.9871685 21.4257909,35.055374 C21.4201545,35.7414288 20.8522909,36.2898534 20.1597227,36.2836193 L11.0147227,36.2053192 Z" id="Fill-1" fill="#FFD032"></path>
                        <path d="M9.84574091,42.5632726 C8.95942273,42.5632726 8.24078636,43.276574 8.24078636,44.1554507 C8.24078636,45.035026 8.95942273,45.7483274 9.84574091,45.7483274 L21.0141955,45.7483274 C21.9005136,45.7483274 22.6198545,45.035026 22.6198545,44.1554507 C22.6198545,43.276574 21.9005136,42.5632726 21.0141955,42.5632726 L15.2820136,42.5632726 L9.84574091,42.5632726 Z" id="Fill-3" fill="#D8D8D8"></path>
                        <path d="M9.84574091,39.3948452 C8.95942273,39.3948452 8.24078636,40.1081466 8.24078636,40.9863247 C8.24078636,41.8659 8.95942273,42.5792014 9.84574091,42.5792014 L21.0141955,42.5792014 C21.9005136,42.5792014 22.6198545,41.8659 22.6198545,40.9863247 C22.6198545,40.1081466 21.9005136,39.3948452 21.0141955,39.3948452 L15.2820136,39.3948452 L9.84574091,39.3948452 Z" id="Fill-5" fill="#D8D8D8"></path>
                        <path d="M9.84574091,36.225789 C8.95942273,36.225789 8.24078636,36.9390904 8.24078636,37.8179671 C8.24078636,38.6975425 8.95942273,39.4108438 9.84574091,39.4108438 L21.0141955,39.4108438 C21.9005136,39.4108438 22.6198545,38.6975425 22.6198545,37.8179671 C22.6198545,36.9390904 21.9005136,36.225789 21.0141955,36.225789 L15.2820136,36.225789 L9.84574091,36.225789 Z" id="Fill-7" fill="#D8D8D8"></path>
                        <path d="M11.2487023,46.254974 L12.5802932,49.8256726 C12.8233614,50.4795904 13.4518159,50.9134397 14.1549523,50.9134397 L16.3679295,50.9134397 C17.0654295,50.9134397 17.6910659,50.4858781 17.9376568,49.8382479 L19.3072932,46.254974 L11.2487023,46.254974 Z" id="Fill-9" fill="#D8D8D8"></path>
                        <path d="M21.558175,32.6473356 C22.5938568,29.9024178 24.7610386,28.1900753 24.7610386,28.1900753 L24.8251523,28.1369795 C28.4951295,25.340363 30.8602886,20.9431849 30.8602886,15.9989795 C30.8602886,7.54904795 23.9515159,0.698979452 15.4300386,0.698979452 C6.90856136,0.698979452 -0.000211363636,7.54904795 -0.000211363636,15.9989795 C-0.000211363636,21.1150479 2.53262955,25.6456644 6.42312955,28.4234178 L6.47456136,28.4653356 C6.47456136,28.4653356 10.2692432,31.4177466 9.72110682,36.1942808" id="Stroke-11" stroke="#1B325E" stroke-width="1.4000001" stroke-linecap="round" stroke-linejoin="round"></path>
                        <path d="M17.8524068,24.2378548 L17.8524068,36.194211" id="Stroke-13" stroke="#1B325E" stroke-width="1.4000001" stroke-linecap="round" stroke-linejoin="round"></path>
                        <path d="M16.3875864,39.3784973 L9.82051818,39.3784973 C8.93349545,39.3784973 8.21415455,38.6651959 8.21415455,37.7863192 C8.21415455,37.0171274 8.76510909,36.3750863 9.49713182,36.2262781" id="Stroke-15" stroke="#1B325E" stroke-width="1.4000001" stroke-linecap="round" stroke-linejoin="round"></path>
                        <path d="M10.5633909,42.5632726 L9.84545909,42.5632726 C8.95984545,42.5632726 8.24050455,41.8499712 8.24050455,40.9710945 C8.24050455,40.0915192 8.95984545,39.3782178 9.84545909,39.3782178 L12.32405,39.3782178 L15.2817318,39.3782178 L16.8394818,39.3782178" id="Stroke-17" stroke="#1B325E" stroke-width="1.4000001" stroke-linecap="round" stroke-linejoin="round"></path>
                        <path d="M15.2819432,42.5632726 L21.014125,42.5632726 C21.9011477,42.5632726 22.6197841,43.276574 22.6197841,44.1554507 C22.6197841,45.035026 21.9011477,45.7483274 21.014125,45.7483274 L9.84567045,45.7483274 C8.95935227,45.7483274 8.24071591,45.035026 8.24071591,44.1554507 C8.24071591,43.276574 8.95935227,42.5632726 9.84567045,42.5632726" id="Stroke-19" stroke="#1B325E" stroke-width="1.4000001" stroke-linecap="round" stroke-linejoin="round"></path>
                        <path d="M12.3667455,11.7369164 L19.8948136,11.7369164" id="Stroke-21" stroke="#052F5F" stroke-width="1.4000001" stroke-linecap="round" stroke-linejoin="round"></path>
                        <path d="M12.3667455,15.3398918 L19.8948136,15.3398918" id="Stroke-23" stroke="#052F5F" stroke-width="1.4000001" stroke-linecap="round" stroke-linejoin="round"></path>
                        <path d="M14.5931795,11.7369164 C16.3538386,11.7369164 17.7812477,13.4625329 17.7812477,15.5905603 C17.7812477,17.7192863 16.3538386,18.8280123 14.5931795,18.8280123 L12.3668159,18.8280123 L17.8517023,24.2200397" id="Stroke-25" stroke="#052F5F" stroke-width="1.4000001" stroke-linecap="round" stroke-linejoin="round"></path>
                        <path d="M11.2487023,46.254974 L12.5802932,49.8256726 C12.8233614,50.4795904 13.4518159,50.9134397 14.1549523,50.9134397 L16.3679295,50.9134397 C17.0654295,50.9134397 17.6910659,50.4858781 17.9376568,49.8382479 L19.3072932,46.254974" id="Stroke-27" stroke="#1B325E" stroke-width="1.4000001" stroke-linecap="round" stroke-linejoin="round"></path>
                        <path d="M17.8524068,36.1944205 L20.9883386,36.1944205 C21.8753614,36.1944205 22.5939977,36.9070233 22.5939977,37.7859 C22.5939977,38.6654753 21.8753614,39.3787767 20.9883386,39.3787767 L19.6947932,39.3787767" id="Stroke-29" stroke="#1B325E" stroke-width="1.4000001" stroke-linecap="round" stroke-linejoin="round"></path>
                        <path d="M20.2260909,39.3784973 L21.0137727,39.3784973 C21.9007955,39.3784973 22.6194318,40.0917986 22.6194318,40.9706753 C22.6194318,41.8502507 21.9007955,42.5635521 21.0137727,42.5635521 L14.5213864,42.5635521" id="Stroke-31" stroke="#1B325E" stroke-width="1.4000001" stroke-linecap="round" stroke-linejoin="round"></path>
                    </g>
                </g>
            </g>
        </g>
    </g>
</svg>