<?xml version="1.0" encoding="UTF-8"?>
<svg width="60px" height="31px" viewBox="0 0 60 31" version="1.1" xmlns="http://www.w3.org/2000/svg" xmlns:xlink="http://www.w3.org/1999/xlink">
    <!-- Generator: sketchtool 55.2 (78181) - https://sketchapp.com -->
    <title>1DD946D0-D1EA-4D50-B966-FBA239316546</title>
    <desc>Created with sketchtool.</desc>
    <g id="Final-Design" stroke="none" stroke-width="1" fill="none" fill-rule="evenodd">
        <g id="Desktop-White-1" transform="translate(-946.000000, -369.000000)">
            <g id="PRoducts" transform="translate(401.000000, 335.000000)">
                <g id="credit-report" transform="translate(510.000000, 0.000000)">
                    <g id="CREDIT-SCORE" transform="translate(36.000000, 35.000000)">
                        <path d="M31.0631083,26.764825 C30.935025,27.8756861 29.9304972,28.671575 28.8196361,28.5426861 C27.7095806,28.4146028 26.9136917,27.410075 27.041775,26.2992139 C27.1706639,25.1883528 28.1751917,24.3932694 29.2852472,24.5213528 C30.3961083,24.6502417 31.1919972,25.6547694 31.0631083,26.764825" id="Fill-1" fill="#FFFFFF"></path>
                        <path d="M-0.000322222222,28.99275 C-0.000322222222,12.9807222 12.9804,0 28.9924278,0 C45.0052611,0 57.9851778,12.9807222 57.9851778,28.99275" id="Fill-3" fill="#FFFFFF"></path>
                        <path d="M57.1327389,21.9550944 C57.6893778,24.2001778 57.9858222,26.5483722 57.9858222,28.9658444" id="Stroke-5" stroke="#1B325E" stroke-width="1.60000002" stroke-linecap="round" stroke-linejoin="round"></path>
                        <path d="M52.41895,11.8793667 C53.7892,13.7547 54.9395333,15.8008111 55.8312833,17.9790333" id="Stroke-7" stroke="#84EB9C" stroke-width="4.00000006" stroke-linecap="round" stroke-linejoin="round"></path>
                        <path d="M42.4376333,3.27232778 C45.1612167,4.69977222 47.6286333,6.54771667 49.7561056,8.72996667" id="Stroke-9" stroke="#1B325E" stroke-width="1.60000002" stroke-linecap="round" stroke-linejoin="round"></path>
                        <path d="M30.2590833,-0.000241666667 C33.0438889,0.118980556 35.7255833,0.632119444 38.2534167,1.48278611" id="Stroke-11" stroke="#1B325E" stroke-width="1.60000002" stroke-linecap="round" stroke-linejoin="round"></path>
                        <path d="M-0.000322222222,28.9660056 C-0.000322222222,14.3032833 10.88515,2.18289444 25.0137889,0.243922222" id="Stroke-13" stroke="#1B325E" stroke-width="1.60000002" stroke-linecap="round" stroke-linejoin="round"></path>
                        <polyline id="Fill-15" fill="#052F5F" points="30.0931389 24.0484917 50.4745 17.325325 31.4658056 27.5711861"></polyline>
                        <path d="M31.0631083,26.764825 C30.935025,27.8756861 29.9304972,28.671575 28.8196361,28.5426861 C27.7095806,28.4146028 26.9136917,27.410075 27.041775,26.2992139 C27.1706639,25.1883528 28.1751917,24.3932694 29.2852472,24.5213528 C30.3961083,24.6502417 31.1919972,25.6547694 31.0631083,26.764825 Z" id="Stroke-17" stroke="#1B325E" stroke-width="1.60000002" stroke-linecap="round" stroke-linejoin="round"></path>
                    </g>
                </g>
            </g>
        </g>
    </g>
</svg>