<?xml version="1.0" encoding="UTF-8"?>
<svg width="52px" height="48px" viewBox="0 0 52 48" version="1.1" xmlns="http://www.w3.org/2000/svg" xmlns:xlink="http://www.w3.org/1999/xlink">
    <!-- Generator: sketchtool 55.2 (78181) - https://sketchapp.com -->
    <title>87AC20C1-BE6B-40D5-8395-FD765CACE327</title>
    <desc>Created with sketchtool.</desc>
    <g id="Final-Design" stroke="none" stroke-width="1" fill="none" fill-rule="evenodd">
        <g id="Dektop-White-2" transform="translate(-782.000000, -545.000000)">
            <g id="Group" transform="translate(-121.000000, 132.000000)">
                <g id="PRoducts" transform="translate(523.000000, 217.000000)">
                    <g id="HL" transform="translate(340.000000, 170.000000)">
                        <g id="Home-Loan" transform="translate(40.000000, 26.000000)">
                            <path d="M40.9066667,7.22985882 L30.0532267,0.473152941 C29.0520533,-0.150847059 27.80336,-0.158611765 26.79456,0.455505882 L15.1791467,7.51362353 C13.96096,8.25409412 13.2045333,9.6108 13.2045333,11.0543294 C13.2045333,11.4446824 13.5144533,11.7602118 13.8978667,11.7602118 L16.5387733,11.7602118 L16.5387733,24.1265647 C16.5387733,24.5169176 16.8493867,24.8324471 17.2321067,24.8324471 C17.61552,24.8324471 17.92544,24.5169176 17.92544,24.1265647 L17.92544,23.5682118 L39.0263467,23.5682118 C39.02704,23.9585647 39.3362667,24.2740941 39.71968,24.2740941 C40.1030933,24.2740941 40.4130133,23.9585647 40.4130133,23.5682118 L40.4130133,11.7122118 L42.29264,11.7122118 C42.6760533,11.7122118 42.9859733,11.3959765 42.9859733,11.0063294 C42.9859733,9.47527059 42.1893333,8.02821176 40.9066667,7.22985882" id="Fill-1" fill="#FFFFFF"></path>
                            <path d="M27.4090613,12.2847529 L21.1898613,12.2847529 C20.8078347,12.2847529 20.496528,12.6002824 20.496528,12.9906353 L20.496528,22.3598118 C20.496528,23.0275765 21.0283147,23.5682824 21.684208,23.5682824 L26.915408,23.5682824 C27.570608,23.5682824 28.1023947,23.0275765 28.1023947,22.3598118 L28.1023947,12.9906353 C28.1023947,12.6002824 27.7924747,12.2847529 27.4090613,12.2847529" id="Fill-3" fill="#FFFFFF"></path>
                            <polygon id="Fill-5" fill="#FFFFFF" points="30.4317867 19.2244941 35.5298667 19.2244941 35.5298667 12.9908471 30.4317867 12.9908471"></polygon>
                            <path d="M0.693333333,35.1859765 L4.56282667,35.1859765 C5.85173333,35.1859765 6.89728,36.2928 6.89728,37.6586824 L6.89728,44.5699765 C6.89728,45.9358588 5.85173333,47.0426824 4.56282667,47.0426824 L0.693333333,47.0426824" id="Fill-8" fill="#ED6262"></path>
                            <path d="M6.897488,37.8199059 L12.8781813,31.4782588 C12.8781813,31.4782588 15.419248,28.1394353 19.3123147,28.1394353 L31.9767413,28.1394353 C31.9767413,28.1394353 33.6677813,32.4304941 29.3878347,34.3639059 C29.3878347,34.3639059 35.4940213,34.4726118 40.5941813,31.4810824 C40.5941813,31.4810824 46.5915147,27.3742588 50.6246347,31.5354353 L39.5853813,40.0180235 C39.5853813,40.0180235 36.1020747,42.5493176 29.8204747,43.0935529 C29.2644213,43.1408471 28.708368,43.1874353 28.1543947,43.2573176 L19.5598347,44.3408471 C16.9910347,44.6648471 14.4049013,44.8279059 11.816688,44.8279059 L6.897488,44.8279059" id="Fill-9" fill="#F5D9BA"></path>
                            <path d="M0.693333333,35.1859765 L4.56282667,35.1859765 C5.85173333,35.1859765 6.89728,36.2928 6.89728,37.6586824 L6.89728,44.5699765 C6.89728,45.9358588 5.85173333,47.0426824 4.56282667,47.0426824 L0.693333333,47.0426824" id="Stroke-10" stroke="#1B325E" stroke-width="1.39999998" stroke-linecap="round" stroke-linejoin="round"></path>
                            <path d="M6.897488,37.8199059 L12.8781813,31.4782588 C12.8781813,31.4782588 15.419248,28.1394353 19.3123147,28.1394353 L31.9767413,28.1394353 C31.9767413,28.1394353 33.6677813,32.4304941 29.3878347,34.3639059 C29.3878347,34.3639059 35.4940213,34.4726118 40.5941813,31.4810824 C40.5941813,31.4810824 46.5915147,27.3742588 50.6246347,31.5354353 L39.5853813,40.0180235 C39.5853813,40.0180235 36.1020747,42.5493176 29.8204747,43.0935529 C29.2644213,43.1408471 28.708368,43.1874353 28.1543947,43.2573176 L19.5598347,44.3408471 C16.9910347,44.6648471 14.4049013,44.8279059 11.816688,44.8279059 L6.897488,44.8279059" id="Stroke-11" stroke="#1B325E" stroke-width="1.39999998" stroke-linecap="round" stroke-linejoin="round"></path>
                            <path d="M20.0904427,34.2912 L29.3873493,34.3646118" id="Stroke-12" stroke="#1B325E" stroke-width="1.39999998" stroke-linecap="round" stroke-linejoin="round"></path>
                            <g id="Group-19" transform="translate(13.000000, 0.000000)">
                                <path d="M27.9066667,7.22985882 L17.0532267,0.473152941 C16.0520533,-0.150847059 14.80336,-0.158611765 13.79456,0.455505882 L2.17914667,7.51362353 C0.96096,8.25409412 0.204533333,9.6108 0.204533333,11.0543294 C0.204533333,11.4446824 0.514453333,11.7602118 0.897866667,11.7602118 L3.53877333,11.7602118 L3.53877333,24.1265647 C3.53877333,24.5169176 3.84938667,24.8324471 4.23210667,24.8324471 C4.61552,24.8324471 4.92544,24.5169176 4.92544,24.1265647 L4.92544,23.5682118 L26.0263467,23.5682118 C26.02704,23.9585647 26.3362667,24.2740941 26.71968,24.2740941 C27.1030933,24.2740941 27.4130133,23.9585647 27.4130133,23.5682118 L27.4130133,11.7122118 L29.29264,11.7122118 C29.6760533,11.7122118 29.9859733,11.3959765 29.9859733,11.0063294 C29.9859733,9.47527059 29.1893333,8.02821176 27.9066667,7.22985882" id="Fill-1" fill="#DEF4FF"></path>
                                <path d="M14.4090613,12.2847529 L8.18986133,12.2847529 C7.80783467,12.2847529 7.496528,12.6002824 7.496528,12.9906353 L7.496528,22.3598118 C7.496528,23.0275765 8.02831467,23.5682824 8.684208,23.5682824 L13.915408,23.5682824 C14.570608,23.5682824 15.1023947,23.0275765 15.1023947,22.3598118 L15.1023947,12.9906353 C15.1023947,12.6002824 14.7924747,12.2847529 14.4090613,12.2847529" id="Fill-3" fill="#FFFFFF"></path>
                                <polygon id="Fill-5" fill="#FFFFFF" points="17.4317867 19.2244941 22.5298667 19.2244941 22.5298667 12.9908471 17.4317867 12.9908471"></polygon>
                                <polygon id="Fill-7" fill="#FE6763" points="26.761072 7.34428235 26.761072 0.708282353 22.3272053 0.708282353 22.3272053 4.58428235"></polygon>
                                <path d="M26.7204427,23.5685647 L26.7204427,11.0059765 L29.2927093,11.0059765 C29.2927093,9.71068235 28.630576,8.50785882 27.544816,7.83232941 L16.691376,1.07562353 C15.9127627,0.589976471 14.933776,0.584329412 14.149616,1.06150588 L2.53420267,8.11962353 C1.51916267,8.73656471 0.897936,9.85115294 0.897936,11.0539765 L4.23286933,11.0539765 L4.23286933,21.7262118" id="Stroke-13" stroke="#1B325E" stroke-width="1.39999998" stroke-linecap="round" stroke-linejoin="round"></path>
                                <polyline id="Stroke-14" stroke="#1B325E" stroke-width="1.39999998" stroke-linecap="round" stroke-linejoin="round" points="22.327552 4.58414118 22.327552 0.708141176 26.7614187 0.708141176 26.7614187 6.89943529"></polyline>
                                <path d="M16.8986827,6.89964706 C16.8986827,7.72835294 16.2386293,8.40035294 15.424656,8.40035294 C14.6106827,8.40035294 13.9506293,7.72835294 13.9506293,6.89964706 C13.9506293,6.07094118 14.6106827,5.39894118 15.424656,5.39894118 C16.2386293,5.39894118 16.8986827,6.07094118 16.8986827,6.89964706" id="Fill-15" fill="#1B325E"></path>
                                <polyline id="Stroke-16" stroke="#1B325E" stroke-width="1.39999998" stroke-linecap="round" stroke-linejoin="round" points="8.19 21.6569647 8.19 12.9908471 14.4092 12.9908471 14.4092 23.5684941"></polyline>
                                <path d="M13.1225813,19.5607059 C13.1225813,19.9757647 12.7925547,20.3110588 12.3862613,20.3110588 C11.9792747,20.3110588 11.6485547,19.9757647 11.6485547,19.5607059 C11.6485547,19.1463529 11.9792747,18.8110588 12.3862613,18.8110588 C12.7925547,18.8110588 13.1225813,19.1463529 13.1225813,19.5607059" id="Fill-17" fill="#052F5F"></path>
                                <polygon id="Stroke-18" stroke="#1B325E" stroke-width="1.39999998" stroke-linecap="round" stroke-linejoin="round" points="17.4317867 19.2244941 22.5298667 19.2244941 22.5298667 12.9908471 17.4317867 12.9908471"></polygon>
                            </g>
                        </g>
                    </g>
                </g>
            </g>
        </g>
    </g>
</svg>