<?xml version="1.0" encoding="UTF-8"?>
<svg width="16px" height="16px" viewBox="0 0 16 16" version="1.1" xmlns="http://www.w3.org/2000/svg" xmlns:xlink="http://www.w3.org/1999/xlink">
    <title>3EEF84BB-A7CD-4ECF-9F29-3E02B64492C8</title>
    <g id="Scenario's-Desktop-&amp;-mobile" stroke="none" stroke-width="1" fill="none" fill-rule="evenodd">
        <g id="08_Bureau---N-(PA---Y)_View-All-CIties_Dev" transform="translate(-1051.000000, -22.000000)" fill="#0E3765" fill-rule="nonzero">
            <g id="Group-6" transform="translate(1027.000000, 0.000000)">
                <path d="M39.8616101,37.1840355 L35.9724994,33.2957871 C37.0157463,32.0966741 37.6473719,30.5321508 37.6473719,28.8221729 C37.6473719,25.0580931 34.5850521,22 30.823686,22 C27.0587713,22 24,25.0616408 24,28.8221729 C24,32.5827051 27.0623198,35.6443459 30.823686,35.6443459 C32.534043,35.6443459 34.0989133,35.0128603 35.2982923,33.9698448 L39.187403,37.8580931 C39.2796629,37.9503326 39.4038589,38 39.5245065,38 C39.6451541,38 39.7693502,37.9538803 39.8616101,37.8580931 C40.04613,37.6736142 40.04613,37.3685144 39.8616101,37.1840355 Z M24.9545354,28.8221729 C24.9545354,25.5866962 27.5874917,22.9578714 30.8201375,22.9578714 C34.0563318,22.9578714 36.6857396,25.5902439 36.6857396,28.8221729 C36.6857396,32.054102 34.0563318,34.6900222 30.8201375,34.6900222 C27.5874917,34.6900222 24.9545354,32.0576497 24.9545354,28.8221729 Z" id="ic_search"></path>
            </g>
        </g>
    </g>
</svg>