<?xml version="1.0" encoding="UTF-8"?>
<svg width="41px" height="52px" viewBox="0 0 41 52" version="1.1" xmlns="http://www.w3.org/2000/svg" xmlns:xlink="http://www.w3.org/1999/xlink">
    <!-- Generator: sketchtool 55.2 (78181) - https://sketchapp.com -->
    <title>6EAC5576-55D0-422B-99AE-3A9EFA28590C</title>
    <desc>Created with sketchtool.</desc>
    <g id="Final-Design" stroke="none" stroke-width="1" fill="none" fill-rule="evenodd">
        <g id="Dektop-White-2" transform="translate(-957.000000, -542.000000)">
            <g id="Group" transform="translate(-121.000000, 132.000000)">
                <g id="PRoducts" transform="translate(523.000000, 217.000000)">
                    <g id="Insurance" transform="translate(510.000000, 170.000000)">
                        <g id="insurance" transform="translate(46.000000, 24.000000)">
                            <path d="M10.0218857,5.02853014 L30.4516179,5.02853014 C31.9050643,5.02853014 33.0834214,6.21061233 33.0834214,7.66865342 L33.0834214,32.3261055 C33.0834214,33.5228589 32.497725,34.6434616 31.5171536,35.3239274 L20.4780643,45.0048452 C19.6952786,45.5483795 18.6596893,45.5574616 17.86785,45.0272014 L6.46731429,35.3798178 C5.80918929,34.9389822 5.41013571,34.2033247 5.39829643,33.4103795 L5.08977857,10.0467904 C5.05077857,7.28650274 7.27029643,5.02853014 10.0218857,5.02853014" id="Fill-1" fill="#FFFFFF"></path>
                            <path d="M26.6980768,19.0161534 C25.0670411,17.3799616 22.4213089,17.3799616 20.7909696,19.0161534 L19.0067196,20.8060438 L17.2238625,19.0161534 C15.5921304,17.3799616 12.9470946,17.3799616 11.3153625,19.0161534 C9.68432679,20.6530438 9.68432679,23.3064411 11.3153625,24.9426329 L18.9830411,32.6345507 L19.0067196,32.6100986 L19.0310946,32.6345507 L26.6980768,24.9426329 C28.3298089,23.3064411 28.3298089,20.6530438 26.6980768,19.0161534 Z" id="Stroke-3" stroke="#052F5F" stroke-width="1.39999998" fill="#ED6262" stroke-linecap="round" stroke-linejoin="round"></path>
                            <path d="M3.96894643,0.000279452055 L34.4753036,0.000279452055 C36.621,0.000279452055 38.3606786,1.7447589 38.3606786,3.89723836 L38.3606786,6.93069041 L8.88573214,6.93069041 C6.86817857,6.93069041 5.23296429,8.5717726 5.23296429,10.5950055 L5.23296429,32.7220192 C5.23296429,35.1860877 6.83335714,36.5784575 8.95676786,37.8171288 L16.1738571,43.0834027 C17.9379107,44.1117863 20.1031071,44.1599918 21.9096429,43.2112521 L29.859375,37.7465671 C31.9904464,36.4310466 32.8157143,34.9492521 32.8157143,32.4397726 L32.8157143,11.725389 L38.1705536,11.6883616 L38.3432679,36.1704575 C38.3537143,37.6864849 37.6043571,39.1068 36.3486964,39.9493479 L22.2355714,49.4199781 C20.3907321,50.6586493 17.9796964,50.6439781 16.1494821,49.3843479 L1.76753571,39.4812658 C0.660910714,38.7197589 0,37.4601288 0,36.1138685 L0,3.98107397 C0,1.78248493 1.77728571,0.000279452055 3.96894643,0.000279452055" id="Fill-5" fill="#84EB9C"></path>
                            <path d="M38.3605393,5.19906575 L38.3605393,3.95829863 C38.3605393,1.77228493 36.5943964,0.00055890411 34.4152714,0.00055890411 L3.945825,0.00055890411 C1.7667,0.00055890411 -0.000139285714,1.77228493 -0.000139285714,3.95829863 L-0.000139285714,36.3887096 C-0.000139285714,37.7119151 0.659378571,38.9477918 1.75695,39.6813534 L16.3603607,49.4461068 C17.9642357,50.5178055 20.052825,50.5226959 21.6608786,49.4572849 L36.588825,39.5681753 C37.6947536,38.8353123 38.3605393,37.5945452 38.3605393,36.2657507 L38.1711107,11.6886411 L33.1693607,11.7256685 L33.1693607,32.804737 C33.1693607,34.1342301 32.503575,35.3742986 31.3976464,36.1071616 L20.0409857,43.630011 C19.4427536,44.0261342 18.6662357,44.024737 18.0687,43.6258192 L6.948825,36.1902986 C5.85055714,35.456737 5.19103929,34.2201616 5.19103929,32.8969562 L5.19103929,9.15680548 C5.19103929,7.36412055 6.64030714,5.91096986 8.42803929,5.91096986 L33.1693607,5.91096986" id="Stroke-7" stroke="#1B325E" stroke-width="1.39999998" stroke-linecap="round" stroke-linejoin="round"></path>
                        </g>
                    </g>
                </g>
            </g>
        </g>
    </g>
</svg>