<?xml version="1.0" encoding="UTF-8"?>
<svg width="48px" height="46px" viewBox="0 0 48 46" version="1.1" xmlns="http://www.w3.org/2000/svg" xmlns:xlink="http://www.w3.org/1999/xlink">
    <!-- Generator: sketchtool 55.2 (78181) - https://sketchapp.com -->
    <title>F6313B9E-C2D2-4FA9-9A84-CBECF5B8E393</title>
    <desc>Created with sketchtool.</desc>
    <g id="Final-Design" stroke="none" stroke-width="1" fill="none" fill-rule="evenodd">
        <g id="Desktop-White-1" transform="translate(-1121.000000, -530.000000)">
            <g id="PRoducts" transform="translate(401.000000, 335.000000)">
                <g id="Car-lease" transform="translate(680.000000, 170.000000)">
                    <g id="LAP" transform="translate(40.000000, 26.000000)">
                        <path d="M4.99930435,22.7351769 L1.93356522,22.7282538 C0.808695652,22.7261769 0.269565217,21.3519462 1.096,20.5917923 L21.1252174,2.16186923 C22.6361739,0.658869231 25.0883478,0.672023077 26.581913,2.19094615 L46.581913,20.5994077 C47.4090435,21.3609462 46.8678261,22.7358692 45.7408696,22.7358692 L41.6233043,22.7358692 L41.6615652,26.8793308 L41.754087,42.6466385 C41.7617391,43.3479462 40.9513043,43.9197923 39.9488696,43.9197923 L29.8027826,43.9197923 L27.9711304,43.9197923 L6.80452174,43.9197923 C5.80765217,43.9197923 4.99930435,43.3534846 4.99930435,42.6549462 L4.99930435,26.6854846 L4.99930435,22.7351769 Z" id="Fill-1" fill="#DEF4FF"></path>
                        <polygon id="Fill-3" fill="#FE6763" points="41.6426435 16.2623769 41.6426435 0.692376923 32.8447304 0.692376923 32.8447304 8.21153077"></polygon>
                        <polyline id="Stroke-5" stroke="#1B325E" stroke-width="1.39999998" stroke-linecap="round" stroke-linejoin="round" points="32.8444522 4.61146154 32.8444522 0.692307692 41.6423652 0.692307692 41.6423652 11.3185385"></polyline>
                        <path d="M46.6732522,26.6395154 C46.6732522,30.3904385 44.443687,33.6235154 41.2318609,35.0974385 C40.0416,35.6436692 38.7163826,35.9475923 37.3202087,35.9475923 C32.1542957,35.9475923 27.9657739,31.7805923 27.9657739,26.6395154 C27.9657739,21.4984385 32.1542957,17.3307462 37.3202087,17.3307462 C38.7066435,17.3307462 40.0221217,17.6305154 41.2061217,18.1698231 C44.4318609,19.6382077 46.6732522,22.8782077 46.6732522,26.6395154" id="Fill-7" fill="#FFD032"></path>
                        <path d="M34.930713,22.6628308 L39.7091478,22.6628308" id="Stroke-9" stroke="#1B325E" stroke-width="1.39999998" stroke-linecap="round" stroke-linejoin="round"></path>
                        <path d="M34.930713,24.9581077 L39.7091478,24.9581077" id="Stroke-11" stroke="#1B325E" stroke-width="1.39999998" stroke-linecap="round" stroke-linejoin="round"></path>
                        <path d="M36.3437913,22.6628308 C37.4610087,22.6628308 38.3674435,23.7622154 38.3674435,25.1177538 C38.3674435,26.4739846 37.4610087,27.1801385 36.3437913,27.1801385 L34.9309217,27.1801385 L38.4126609,30.6160615" id="Stroke-13" stroke="#1B325E" stroke-width="1.39999998" stroke-linecap="round" stroke-linejoin="round"></path>
                        <path d="M46.6732522,26.6395154 C46.6732522,30.3904385 44.443687,33.6235154 41.2318609,35.0974385 C40.0416,35.6436692 38.7163826,35.9475923 37.3202087,35.9475923 C32.1542957,35.9475923 27.9657739,31.7805923 27.9657739,26.6395154 C27.9657739,21.4984385 32.1542957,17.3307462 37.3202087,17.3307462 C38.7066435,17.3307462 40.0221217,17.6305154 41.2061217,18.1698231 C44.4318609,19.6382077 46.6732522,22.8782077 46.6732522,26.6395154 Z" id="Stroke-15" stroke="#1B325E" stroke-width="1.39999998" stroke-linecap="round" stroke-linejoin="round"></path>
                        <path d="M41.7432348,38.2566462 L41.7544097,42.6465692 C41.7613217,43.3478769 40.950887,43.9197231 39.9491478,43.9197231 L29.8030609,43.9197231 L27.9714087,43.9197231 L6.80410435,43.9197231 C5.80793043,43.9197231 4.99958261,43.3534154 4.99958261,42.6555692 L4.99958261,26.6854154 L4.99958261,22.7351077 L1.93314783,22.7281846 C0.808278261,22.7261077 0.269843478,21.3518769 1.09558261,20.5917231 L21.1248,2.1618 C22.6357565,0.6588 25.0886261,0.671953846 26.5821913,2.19087692 L40.8889739,15.3094154" id="Stroke-17" stroke="#1B325E" stroke-width="1.39999998" stroke-linecap="round" stroke-linejoin="round"></path>
                        <polygon id="Fill-19" fill="#FFFFFF" points="12.5022609 41.9908846 22.9085217 41.9908846 22.9085217 23.7015 12.5022609 23.7015"></polygon>
                        <polyline id="Stroke-21" stroke="#1B325E" stroke-width="1.39999998" stroke-linecap="round" stroke-linejoin="round" points="12.5020522 37.8780231 12.5020522 23.7009462 22.908313 23.7009462 22.908313 41.0044846"></polyline>
                        <path d="M20.7554783,34.4489538 C20.7554783,35.1267231 20.2038261,35.6757231 19.5227826,35.6757231 C18.8410435,35.6757231 18.2893913,35.1267231 18.2893913,34.4489538 C18.2893913,33.7711846 18.8410435,33.2221846 19.5227826,33.2221846 C20.2038261,33.2221846 20.7554783,33.7711846 20.7554783,34.4489538" id="Fill-22" fill="#052F5F"></path>
                    </g>
                </g>
            </g>
        </g>
    </g>
</svg>