<?xml version="1.0" encoding="UTF-8"?>
<svg width="68px" height="39px" viewBox="0 0 68 39" version="1.1" xmlns="http://www.w3.org/2000/svg" xmlns:xlink="http://www.w3.org/1999/xlink">
    <!-- Generator: sketchtool 55.2 (78181) - https://sketchapp.com -->
    <title>C6D3DA92-8629-4752-BC5F-B06E145A33DA</title>
    <desc>Created with sketchtool.</desc>
    <g id="Final-Design" stroke="none" stroke-width="1" fill="none" fill-rule="evenodd">
        <g id="Dektop-White-2" transform="translate(-408.000000, -142.000000)">
            <g id="Group" transform="translate(-121.000000, 132.000000)">
                <g id="Credit-Report-Banner" transform="translate(509.000000, 0.000000)">
                    <g id="meter-colored" transform="translate(20.000000, 10.000000)">
                        <g id="meter" transform="translate(4.362126, 0.000000)" fill-rule="nonzero">
                            <path d="M56.5225299,22.4315223 C56.4407764,22.1043136 56.641496,21.7732159 56.9708498,21.6919948 C57.3002036,21.6107737 57.633472,21.810186 57.7152256,22.1373946 C58.2856869,24.4205956 58.5769154,26.7778239 58.5769154,29.1727 C58.5769154,29.5098385 58.3018189,29.7831433 57.9624702,29.7831433 C57.6231214,29.7831433 57.3480249,29.5098385 57.3480249,29.1727 C57.3480249,26.8771596 57.0689981,24.6186939 56.5225299,22.4315223 Z" id="Stroke-1" fill="#E4E6EF"></path>
                            <path d="M51.2991974,13.2248633 C50.8320538,12.5896951 50.9716404,11.6985613 51.6109728,11.2344603 C52.2503052,10.7703593 53.1472812,10.9090367 53.6144248,11.544205 C55.0464398,13.4912946 56.237599,15.6037318 57.1589997,17.8379723 C57.4591974,18.5659008 57.1085844,19.3977767 56.3758837,19.6960191 C55.6431829,19.9942615 54.8058533,19.6459321 54.5056556,18.9180037 C53.6723767,16.8974435 52.5948917,14.9865996 51.2991974,13.2248633 Z" id="Stroke-3" fill="#72BC44"></path>
                            <path d="M42.3001907,4.46770176 C41.9996488,4.311146 41.883757,3.94218198 42.0413391,3.64359756 C42.1989212,3.34501314 42.5703041,3.22987616 42.8708461,3.38643192 C45.6092337,4.81288968 48.1049651,6.6640497 50.2637209,8.8642843 C50.5005901,9.10570477 50.4956175,9.49218448 50.2526143,9.72751089 C50.0096111,9.96283731 49.6205977,9.95789711 49.3837285,9.71647665 C47.3150801,7.60808081 44.9236852,5.83431038 42.3001907,4.46770176 Z" id="Stroke-5" fill="#F5B119"></path>
                            <path d="M30.5146161,1.32197791 C30.1755807,1.30749336 29.9125572,1.02269892 29.9271367,0.68587172 C29.9417162,0.349044522 30.2283778,0.0877341765 30.5674132,0.102218728 C33.3413656,0.220729819 36.052624,0.724161203 38.6428419,1.59070248 C38.9644465,1.6982933 39.1373671,2.04452685 39.0290709,2.36403675 C38.9207747,2.68354666 38.5722713,2.85534102 38.2506667,2.7477502 C35.769701,1.91775855 33.1726727,1.4355376 30.5146161,1.32197791 Z" id="Stroke-7" fill="#F38120"></path>
                            <path d="M1.22880453,29.172757 C1.22880453,29.5098955 0.953708007,29.7832002 0.614359252,29.7832002 C0.275010497,29.7832002 -8.60223384e-05,29.5098955 -8.60223384e-05,29.172757 C-8.60223384e-05,14.5891381 10.8622815,2.31131694 25.2696843,0.346704378 C25.605881,0.300860147 25.91583,0.534462219 25.9619748,0.86846921 C26.0081196,1.2024762 25.7729861,1.51040646 25.4367893,1.55625069 C11.6358046,3.43817128 1.22880453,15.201287 1.22880453,29.172757 Z" id="Stroke-9" fill="#E20B20"></path>
                        </g>
                        <path d="M1.18668318,35.9153702 L1.60962924,35.9153702 C1.87536646,35.9113132 2.08430175,35.84133 2.23644138,35.7054186 C2.38858101,35.5695072 2.46464969,35.3859281 2.46464969,35.1546759 C2.46464969,34.6353726 2.2060162,34.3757249 1.68874145,34.3757249 C1.44531804,34.3757249 1.25108936,34.4452009 1.10604958,34.5841551 C0.961009801,34.7231093 0.888490999,34.9071955 0.888490999,35.1364192 L0.325577181,35.1364192 C0.325577181,34.7854838 0.453879678,34.4938872 0.710488521,34.2616207 C0.967097364,34.0293542 1.29317841,33.9132227 1.68874145,33.9132227 C2.1066183,33.9132227 2.43422073,34.0237758 2.67155855,34.2448854 C2.90889637,34.465995 3.02756351,34.7733125 3.02756351,35.166847 C3.02756351,35.3595572 2.96518719,35.546179 2.8404327,35.726718 C2.7156782,35.907257 2.54579149,36.0421522 2.33076748,36.1314074 C2.57419089,36.2084915 2.76233408,36.3362869 2.89520269,36.5147974 C3.0280713,36.6933079 3.09450461,36.9113714 3.09450461,37.1689945 C3.09450461,37.5665861 2.96468074,37.8820175 2.7050291,38.1152983 C2.44537747,38.348579 2.10763255,38.4652177 1.69178423,38.4652177 C1.27593591,38.4652177 0.93768387,38.352636 0.67701797,38.1274694 C0.41635207,37.9023027 0.286021075,37.6051278 0.286021075,37.2359356 L0.85197767,37.2359356 C0.85197767,37.4692164 0.928046344,37.6558382 1.08018597,37.7958066 C1.2323256,37.9357751 1.43618965,38.0057583 1.69178423,38.0057583 C1.96360704,38.0057583 2.17152808,37.9347609 2.3155536,37.7927639 C2.45957911,37.6507669 2.53159079,37.4469028 2.53159079,37.1811656 C2.53159079,36.9235425 2.45247937,36.725764 2.29425415,36.587824 C2.13602894,36.4498841 1.90782292,36.3788867 1.60962924,36.3748296 L1.18668318,36.3748296 L1.18668318,35.9153702 Z M6.64542583,36.5147974 C6.64542583,37.1740691 6.53284419,37.6639514 6.30767754,37.9844588 C6.08251088,38.3049663 5.73056648,38.4652177 5.25183378,38.4652177 C4.77918666,38.4652177 4.42927076,38.3085162 4.20207558,37.9951086 C3.9748804,37.6817009 3.85722752,37.213625 3.8491134,36.5908668 L3.8491134,35.8393008 C3.8491134,35.1881432 3.96169504,34.7043464 4.18686169,34.387896 C4.41202835,34.0714455 4.76498699,33.9132227 5.24574823,33.9132227 C5.7224524,33.9132227 6.07338255,34.0658672 6.2985492,34.3711607 C6.52371586,34.6764542 6.63934024,35.1475729 6.64542583,35.7845308 L6.64542583,36.5147974 Z M6.08251201,35.7449747 C6.08251201,35.2682705 6.01557158,34.9208902 5.8816887,34.7028234 C5.74780583,34.4847566 5.53582779,34.3757249 5.24574823,34.3757249 C4.95769719,34.3757249 4.74774765,34.4842495 4.61589331,34.701302 C4.48403896,34.9183546 4.41608428,35.2520425 4.41202722,35.7023758 L4.41202722,36.6030379 C4.41202722,37.0817706 4.48150328,37.4352364 4.62045747,37.6634458 C4.75941167,37.8916553 4.96986833,38.0057583 5.25183378,38.0057583 C5.52974217,38.0057583 5.73614184,37.8982479 5.87103898,37.6832239 C6.00593612,37.4681999 6.07642642,37.1294407 6.08251201,36.6669362 L6.08251201,35.7449747 Z M10.1446198,36.5147974 C10.1446198,37.1740691 10.0320382,37.6639514 9.80687154,37.9844588 C9.58170489,38.3049663 9.22976049,38.4652177 8.75102778,38.4652177 C8.27838066,38.4652177 7.92846476,38.3085162 7.70126958,37.9951086 C7.4740744,37.6817009 7.35642152,37.213625 7.3483074,36.5908668 L7.3483074,35.8393008 C7.3483074,35.1881432 7.46088904,34.7043464 7.68605569,34.387896 C7.91122235,34.0714455 8.264181,33.9132227 8.74494223,33.9132227 C9.2216464,33.9132227 9.57257655,34.0658672 9.79774321,34.3711607 C10.0229099,34.6764542 10.1385342,35.1475729 10.1446198,35.7845308 L10.1446198,36.5147974 Z M9.58170601,35.7449747 C9.58170601,35.2682705 9.51476558,34.9208902 9.3808827,34.7028234 C9.24699983,34.4847566 9.03502179,34.3757249 8.74494223,34.3757249 C8.45689119,34.3757249 8.24694165,34.4842495 8.11508731,34.701302 C7.98323296,34.9183546 7.91527828,35.2520425 7.91122122,35.7023758 L7.91122122,36.6030379 C7.91122122,37.0817706 7.98069728,37.4352364 8.11965147,37.6634458 C8.25860567,37.8916553 8.46906233,38.0057583 8.75102778,38.0057583 C9.02893617,38.0057583 9.23533584,37.8982479 9.37023298,37.6832239 C9.50513012,37.4681999 9.57562043,37.1294407 9.58170601,36.6669362 L9.58170601,35.7449747 Z" id="300" fill="#CA3D41"></path>
                        <path d="M59.8562998,36.4569846 C59.7386451,36.5969531 59.5981716,36.7095347 59.4348751,36.7947329 C59.2715786,36.8799311 59.0925636,36.9225295 58.8978249,36.9225295 C58.6422303,36.9225295 58.4196027,36.8596461 58.2299352,36.7338773 C58.0402678,36.6081086 57.8937089,36.4311221 57.7902539,36.2029127 C57.686799,35.9747032 57.6350723,35.7226624 57.6350723,35.4467825 C57.6350723,35.1506174 57.6913631,34.8838699 57.8039464,34.646532 C57.9165297,34.4091942 58.076274,34.2276437 58.2831839,34.1018749 C58.4900938,33.9761061 58.731485,33.9132227 59.0073649,33.9132227 C59.445527,33.9132227 59.7908788,34.0770239 60.0434306,34.4046312 C60.2959824,34.7322386 60.4222564,35.1790153 60.4222564,35.7449747 L60.4222564,35.9092847 C60.4222564,36.7714092 60.2518625,37.4007507 59.9110698,37.797328 C59.570277,38.1939053 59.0560528,38.3972623 58.3683816,38.4074049 L58.2588416,38.4074049 L58.2588416,37.9327316 L58.37751,37.9327316 C58.842043,37.9246175 59.1990586,37.8034148 59.4485676,37.5691197 C59.6980766,37.3348247 59.833986,36.9641167 59.8562998,36.4569846 Z M58.9891082,36.4569846 C59.1777614,36.4569846 59.3517051,36.3991724 59.5109445,36.2835463 C59.670184,36.1679202 59.7863155,36.0249111 59.8593425,35.8545147 L59.8593425,35.6293491 C59.8593425,35.260157 59.7792169,34.9599393 59.6189631,34.728687 C59.4587094,34.4974348 59.2558596,34.3818104 59.0104077,34.3818104 C58.7629272,34.3818104 58.5641344,34.4766427 58.4140233,34.6663101 C58.2639122,34.8559775 58.1888578,35.1059899 58.1888578,35.4163547 C58.1888578,35.7186055 58.2613766,35.9676036 58.4064163,36.1633566 C58.5514561,36.3591096 58.7456848,36.4569846 58.9891082,36.4569846 Z M63.9762204,36.5147974 C63.9762204,37.1740691 63.8636387,37.6639514 63.6384721,37.9844588 C63.4133054,38.3049663 63.061361,38.4652177 62.5826283,38.4652177 C62.1099812,38.4652177 61.7600653,38.3085162 61.5328701,37.9951086 C61.3056749,37.6817009 61.188022,37.213625 61.1799079,36.5908668 L61.1799079,35.8393008 C61.1799079,35.1881432 61.2924896,34.7043464 61.5176562,34.387896 C61.7428229,34.0714455 62.0957815,33.9132227 62.5765428,33.9132227 C63.0532469,33.9132227 63.4041771,34.0658672 63.6293437,34.3711607 C63.8545104,34.6764542 63.9701348,35.1475729 63.9762204,35.7845308 L63.9762204,36.5147974 Z M63.4133065,35.7449747 C63.4133065,35.2682705 63.3463661,34.9208902 63.2124832,34.7028234 C63.0786004,34.4847566 62.8666223,34.3757249 62.5765428,34.3757249 C62.2884917,34.3757249 62.0785422,34.4842495 61.9466878,34.701302 C61.8148335,34.9183546 61.7468788,35.2520425 61.7428218,35.7023758 L61.7428218,36.6030379 C61.7428218,37.0817706 61.8122978,37.4352364 61.951252,37.6634458 C62.0902062,37.8916553 62.3006629,38.0057583 62.5826283,38.0057583 C62.8605367,38.0057583 63.0669364,37.8982479 63.2018335,37.6832239 C63.3367306,37.4681999 63.407221,37.1294407 63.4133065,36.6669362 L63.4133065,35.7449747 Z M67.4754144,36.5147974 C67.4754144,37.1740691 67.3628327,37.6639514 67.1376661,37.9844588 C66.9124994,38.3049663 66.560555,38.4652177 66.0818223,38.4652177 C65.6091752,38.4652177 65.2592593,38.3085162 65.0320641,37.9951086 C64.8048689,37.6817009 64.687216,37.213625 64.6791019,36.5908668 L64.6791019,35.8393008 C64.6791019,35.1881432 64.7916836,34.7043464 65.0168502,34.387896 C65.2420169,34.0714455 65.5949755,33.9132227 66.0757368,33.9132227 C66.5524409,33.9132227 66.9033711,34.0658672 67.1285377,34.3711607 C67.3537044,34.6764542 67.4693288,35.1475729 67.4754144,35.7845308 L67.4754144,36.5147974 Z M66.9125005,35.7449747 C66.9125005,35.2682705 66.8455601,34.9208902 66.7116772,34.7028234 C66.5777944,34.4847566 66.3658163,34.3757249 66.0757368,34.3757249 C65.7876857,34.3757249 65.5777362,34.4842495 65.4458818,34.701302 C65.3140275,34.9183546 65.2460728,35.2520425 65.2420158,35.7023758 L65.2420158,36.6030379 C65.2420158,37.0817706 65.3114918,37.4352364 65.450446,37.6634458 C65.5894002,37.8916553 65.7998569,38.0057583 66.0818223,38.0057583 C66.3597307,38.0057583 66.5661304,37.8982479 66.7010275,37.6832239 C66.8359247,37.4681999 66.906415,37.1294407 66.9125005,36.6669362 L66.9125005,35.7449747 Z" id="900" fill="#178700"></path>
                        <path d="M29.6841191,19.0811515 L26.2579518,26.9558594 L24.4018576,26.9558594 L27.8341105,19.5193115 L23.4281688,19.5193115 L23.4281688,18.0952917 L29.6841191,18.0952917 L29.6841191,19.0811515 Z M34.9237818,23.4140666 C34.4653344,23.8643999 33.9298109,24.0895631 33.3171953,24.0895631 C32.5341834,24.0895631 31.9073775,23.8207872 31.4367589,23.2832271 C30.9661403,22.7456671 30.7308346,22.0204791 30.7308346,21.1076413 C30.7308346,20.5274822 30.8576157,19.9950015 31.1111817,19.5101832 C31.3647478,19.0253649 31.7187207,18.6480642 32.173111,18.37827 C32.6275014,18.1084757 33.1386829,17.9735806 33.7066708,17.9735806 C34.290887,17.9735806 34.8101825,18.1196324 35.2645729,18.4117405 C35.7189632,18.7038486 36.0719219,19.1237477 36.3234594,19.6714504 C36.5749969,20.219153 36.7027923,20.8459589 36.7068494,21.5518868 L36.7068494,22.2030412 C36.7068494,23.6798098 36.3396912,24.8401107 35.6053639,25.6839785 C34.8710367,26.5278463 33.8304172,26.9781729 32.4834743,27.0349717 L32.0513999,27.0410572 L32.0513999,25.5744385 L32.4408755,25.568353 C33.9703859,25.499383 34.798013,24.7812947 34.9237818,23.4140666 Z M33.7492697,22.7446555 C34.0332637,22.7446555 34.2776977,22.6716296 34.4825791,22.5255756 C34.6874605,22.3795215 34.8426405,22.2030422 34.948124,21.9961323 L34.948124,21.2719513 C34.948124,20.6755639 34.8345281,20.2130664 34.607333,19.8844448 C34.3801378,19.5558232 34.0758631,19.3915148 33.6944997,19.3915148 C33.3415358,19.3915148 33.0514606,19.5527804 32.8242654,19.8753164 C32.5970702,20.1978525 32.4834743,20.6025378 32.4834743,21.0893846 C32.4834743,21.5721744 32.5940275,21.9687457 32.8151371,22.2791106 C33.0362467,22.5894754 33.3476211,22.7446555 33.7492697,22.7446555 Z M39.7496268,21.7466245 L40.6868022,21.7466245 C41.1330784,21.7466245 41.4637236,21.6350572 41.6787476,21.411919 C41.8937716,21.1887809 42.001282,20.8926202 42.001282,20.523428 C42.001282,20.166407 41.8947859,19.8885028 41.6817904,19.689707 C41.4687949,19.4909112 41.175677,19.3915148 40.8024277,19.3915148 C40.465692,19.3915148 40.1837308,19.4838115 39.9565356,19.6684076 C39.7293404,19.8530037 39.6157445,20.0933807 39.6157445,20.3895458 L37.8570192,20.3895458 C37.8570192,19.9270414 37.9817718,19.5122135 38.2312808,19.1450499 C38.4807898,18.7778862 38.8296915,18.4908538 39.2779963,18.2839439 C39.726301,18.077034 40.2202403,17.9735806 40.7598288,17.9735806 C41.697009,17.9735806 42.4313252,18.1977296 42.9627997,18.6460344 C43.4942741,19.0943392 43.7600074,19.7120168 43.7600074,20.4990858 C43.7600074,20.9047915 43.636269,21.2780351 43.3887885,21.6188279 C43.141308,21.9596207 42.8167484,22.2212969 42.4150997,22.4038645 C42.9141177,22.582375 43.2863471,22.8501367 43.5317991,23.2071577 C43.777251,23.5641787 43.8999751,23.9861063 43.8999751,24.4729531 C43.8999751,25.2600221 43.6129427,25.890885 43.0388691,26.3655606 C42.4647956,26.8402363 41.7051231,27.0775705 40.7598288,27.0775705 C39.8753905,27.0775705 39.1522309,26.8442933 38.5903286,26.3777317 C38.0284262,25.9111702 37.7474792,25.2945068 37.7474792,24.5277231 L39.5062046,24.5277231 C39.5062046,24.8604017 39.6309572,25.1322205 39.8804662,25.3431874 C40.1299752,25.5541544 40.4372926,25.6596363 40.8024277,25.6596363 C41.2203046,25.6596363 41.547907,25.5490831 41.7852448,25.3279735 C42.0225827,25.1068639 42.1412498,24.813746 42.1412498,24.4486109 C42.1412498,23.5641725 41.6544103,23.1219599 40.6807166,23.1219599 L39.7496268,23.1219599 L39.7496268,21.7466245 Z" id="793" fill="#54A033"></path>
                    </g>
                </g>
            </g>
        </g>
    </g>
</svg>