<?xml version="1.0" encoding="UTF-8"?>
<svg width="40px" height="53px" viewBox="0 0 40 53" version="1.1" xmlns="http://www.w3.org/2000/svg" xmlns:xlink="http://www.w3.org/1999/xlink">
    <!-- Generator: sketchtool 55.2 (78181) - https://sketchapp.com -->
    <title>3386B69B-6821-4611-B68C-A0A82C867C4A</title>
    <desc>Created with sketchtool.</desc>
    <g id="Final-Design" stroke="none" stroke-width="1" fill="none" fill-rule="evenodd">
        <g id="Dektop-White-2" transform="translate(-1127.000000, -372.000000)">
            <g id="Group" transform="translate(-121.000000, 132.000000)">
                <g id="PRoducts" transform="translate(523.000000, 217.000000)">
                    <g id="MF" transform="translate(680.000000, 0.000000)">
                        <g id="Mutual-Fund" transform="translate(46.000000, 24.000000)">
                            <path d="M29.0427091,14.3661411 C29.0427091,20.1109767 24.4378,24.7673466 18.7564545,24.7673466 C13.0758,24.7673466 8.4702,20.1109767 8.4702,14.3661411 C8.4702,8.62130548 13.0758,3.96423699 18.7564545,3.96423699 C24.4378,3.96423699 29.0427091,8.62130548 29.0427091,14.3661411" id="Fill-1" fill="#FFD032"></path>
                            <path d="M18.8012255,24.8032562 L18.8012255,50.3200233" id="Stroke-3" stroke="#1B325E" stroke-width="1.39999998" stroke-linecap="round" stroke-linejoin="round"></path>
                            <path d="M10.5237891,50.3203027 L15.9674618,50.3203027" id="Stroke-5" stroke="#1B325E" stroke-width="1.39999998" stroke-linecap="round" stroke-linejoin="round"></path>
                            <path d="M22.0789673,50.3203027 L27.52264,50.3203027" id="Stroke-7" stroke="#1B325E" stroke-width="1.39999998" stroke-linecap="round" stroke-linejoin="round"></path>
                            <path d="M5.58282182,39.8770397 C1.05529455,37.3354233 0.000276363636,28.1833685 0.000276363636,28.1833685 C3.56467636,27.746026 8.89227636,30.7955466 8.89227636,30.7955466 C11.13704,32.2759438 11.8493673,33.9463685 11.9308945,35.3722726 C12.0704582,37.7993137 10.2899855,40.0006973 7.90842182,40.3318479 C7.88562182,40.3353411 7.86351273,40.3381356 7.84071273,40.3409301 C7.06205818,40.4380397 6.26820364,40.2619849 5.58282182,39.8770397" id="Fill-9" fill="#84EB9C"></path>
                            <path d="M18.6048691,47.4855411 C18.6048691,47.4855411 12.8882873,39.7992123 7.73756,35.8191164" id="Stroke-11" stroke="#1B325E" stroke-width="1.39999998" stroke-linecap="round" stroke-linejoin="round"></path>
                            <path d="M5.58282182,39.8770397 C1.05529455,37.3354233 0.000276363636,28.1833685 0.000276363636,28.1833685 C3.56467636,27.746026 8.89227636,30.7955466 8.89227636,30.7955466 C11.13704,32.2759438 11.8493673,33.9463685 11.9308945,35.3722726 C11.9930764,36.4579438 11.6718036,37.4996014 11.0831491,38.348437" id="Stroke-13" stroke="#1B325E" stroke-width="1.39999998" stroke-linecap="round" stroke-linejoin="round"></path>
                            <path d="M29.0427091,14.3661411 C29.0427091,20.1109767 24.4378,24.7673466 18.7564545,24.7673466 C13.0758,24.7673466 8.4702,20.1109767 8.4702,14.3661411 C8.4702,8.62130548 13.0758,3.96423699 18.7564545,3.96423699 C24.4378,3.96423699 29.0427091,8.62130548 29.0427091,14.3661411 Z" id="Stroke-15" stroke="#1B325E" stroke-width="1.39999998" stroke-linecap="round" stroke-linejoin="round"></path>
                            <path d="M18.6048691,-0.000139726027 L18.6048691,4.00091507" id="Stroke-17" stroke="#1B325E" stroke-width="1.39999998" stroke-linecap="round" stroke-linejoin="round"></path>
                            <path d="M8.64334182,4.22713151 L11.4201055,7.07684384" id="Stroke-19" stroke="#1B325E" stroke-width="1.39999998" stroke-linecap="round" stroke-linejoin="round"></path>
                            <path d="M4.48102909,14.3743151 L8.43717455,14.4155342" id="Stroke-21" stroke="#1B325E" stroke-width="1.39999998" stroke-linecap="round" stroke-linejoin="round"></path>
                            <path d="M8.76010545,24.6927329 L11.5513782,21.8576918" id="Stroke-23" stroke="#1B325E" stroke-width="1.39999998" stroke-linecap="round" stroke-linejoin="round"></path>
                            <path d="M29.0123782,4.44203014 L26.1319782,7.18415342" id="Stroke-25" stroke="#1B325E" stroke-width="1.39999998" stroke-linecap="round" stroke-linejoin="round"></path>
                            <path d="M32.9675564,14.4138575 L29.01072,14.3768301" id="Stroke-27" stroke="#1B325E" stroke-width="1.39999998" stroke-linecap="round" stroke-linejoin="round"></path>
                            <path d="M28.5872618,24.7916589 L25.8712982,21.882563" id="Stroke-29" stroke="#1B325E" stroke-width="1.39999998" stroke-linecap="round" stroke-linejoin="round"></path>
                            <path d="M15.5882218,9.4873274 L21.92524,9.4873274" id="Stroke-31" stroke="#052F5F" stroke-width="1.39999998" stroke-linecap="round" stroke-linejoin="round"></path>
                            <path d="M15.5882218,12.5799534 L21.92524,12.5799534" id="Stroke-33" stroke="#052F5F" stroke-width="1.39999998" stroke-linecap="round" stroke-linejoin="round"></path>
                            <path d="M17.4618982,9.4873274 C18.9445891,9.4873274 20.14608,10.9684233 20.14608,12.7953411 C20.14608,14.6229575 18.9445891,15.5744918 17.4618982,15.5744918 L15.5881527,15.5744918 L20.2048073,20.2036151" id="Stroke-35" stroke="#052F5F" stroke-width="1.39999998" stroke-linecap="round" stroke-linejoin="round"></path>
                            <path d="M31.8232036,37.1043164 C36.35004,34.5627 37.4057491,25.4106452 37.4057491,25.4106452 C33.8413491,24.9733027 28.5137491,28.0228233 28.5137491,28.0228233 C26.2689855,29.5032205 25.5566582,31.1736452 25.4751309,32.5995493 C25.3355673,35.0265904 27.11604,37.2286726 29.4976036,37.5598233 C29.5204036,37.5626178 29.5425127,37.566111 29.5653127,37.5689055 C30.3432764,37.6660151 31.1378218,37.4892616 31.8232036,37.1043164" id="Fill-37" fill="#84EB9C"></path>
                            <path d="M18.8012255,44.7128877 C18.8012255,44.7128877 24.5178073,37.0265589 29.6685345,33.046463" id="Stroke-39" stroke="#1B325E" stroke-width="1.39999998" stroke-linecap="round" stroke-linejoin="round"></path>
                            <path d="M31.8232036,37.1043164 C36.35004,34.5627 37.4057491,25.4106452 37.4057491,25.4106452 C33.8413491,24.9733027 28.5137491,28.0228233 28.5137491,28.0228233 C26.2689855,29.5032205 25.5566582,31.1736452 25.4751309,32.5995493 C25.4129491,33.6852205 25.7342218,34.7268781 26.3228764,35.5757137" id="Stroke-41" stroke="#1B325E" stroke-width="1.39999998" stroke-linecap="round" stroke-linejoin="round"></path>
                        </g>
                    </g>
                </g>
            </g>
        </g>
    </g>
</svg>