<?xml version="1.0" encoding="UTF-8"?>
<svg width="117px" height="20px" viewBox="0 0 117 20" version="1.1" xmlns="http://www.w3.org/2000/svg" xmlns:xlink="http://www.w3.org/1999/xlink">
    <title>1C172B34-E4F0-4242-A4EF-8217954A1915</title>
    <defs>
        <polygon id="path-1" points="0 0.00426701221 18.7888155 0.00426701221 18.7888155 18.6958473 0 18.6958473"></polygon>
        <path d="M0.00778801136,8.80516516 C0.00778801136,13.6634973 3.96668245,17.6019189 8.85027567,17.6019189 L8.85027567,17.6019189 C13.733835,17.6019189 17.6927634,13.6634973 17.6927634,8.80516516 L17.6927634,8.80516516 C17.6927634,3.9469011 13.733835,0.0084795373 8.85027567,0.0084795373 L8.85027567,0.0084795373 C3.96668245,0.0084795373 0.00778801136,3.9469011 0.00778801136,8.80516516" id="path-3"></path>
        <linearGradient x1="49.999962%" y1="84.8101095%" x2="49.999962%" y2="-24.5244399%" id="linearGradient-5">
            <stop stop-color="#0275AF" offset="0%"></stop>
            <stop stop-color="#FFFFFF" offset="100%"></stop>
        </linearGradient>
    </defs>
    <g id="Mobile" stroke="none" stroke-width="1" fill="none" fill-rule="evenodd">
        <g id="Landing---New-2" transform="translate(-16.000000, -14.000000)">
            <g id="Paisabazaar-logo-white-(1)" transform="translate(16.000000, 14.000000)">
                <g id="Group-16" transform="translate(97.353143, 0.000000)">
                    <g id="Fill-1-Clipped" transform="translate(0.000000, 0.029798)">
                        <mask id="mask-2" fill="white">
                            <use xlink:href="#path-1"></use>
                        </mask>
                        <g id="path-1"></g>
                        <path d="M18.7888155,9.35004524 C18.7888155,14.5115975 14.5827792,18.6958575 9.39443328,18.6958575 C4.20601926,18.6958575 -1.70043916e-05,14.5115975 -1.70043916e-05,9.35004524 C-1.70043916e-05,4.18852705 4.20601926,0.00426701221 9.39443328,0.00426701221 C14.5827792,0.00426701221 18.7888155,4.18852705 18.7888155,9.35004524" id="Fill-1" fill="#0375AF" fill-rule="nonzero" mask="url(#mask-2)"></path>
                    </g>
                    <g id="Fill-4-Clipped" transform="translate(0.544140, 0.574667)">
                        <mask id="mask-4" fill="white">
                            <use xlink:href="#path-3"></use>
                        </mask>
                        <g id="path-3"></g>
                        <path d="M8.85027567,17.6019189 C13.733835,17.6019189 17.6927634,13.6634973 17.6927634,8.80516516 C17.6927634,3.9469011 13.733835,0.0084795373 8.85027567,0.0084795373 C3.96668245,0.0084795373 0.00778801136,3.9469011 0.00778801136,8.80516516 C0.00778801136,13.6634973 3.96668245,17.6019189 8.85027567,17.6019189 Z" id="Fill-4" fill="url(#linearGradient-5)" fill-rule="nonzero" mask="url(#mask-4)"></path>
                    </g>
                    <g id="Group-15" transform="translate(1.683512, 0.659803)" fill-rule="nonzero">
                        <path d="M7.67787185,11.4109134 C3.45710977,11.4109134 0.0354860879,8.91554558 0.0354860879,5.83737137 C0.0354860879,2.75919717 3.84826878,0.00845569925 7.67787185,0.00845569925 C11.5074749,0.00845569925 15.3202916,2.75919717 15.3202916,5.83737137 C15.3202916,8.91554558 11.8986679,11.4109134 7.67787185,11.4109134 Z" id="Fill-7" fill="#0391C4" opacity="0.600000024"></path>
                        <path d="M4.55818829,10.6456232 L5.11946925,10.4713329 C5.22894352,10.863503 5.21187112,11.2177366 5.068116,11.5339313 C4.92439487,11.8501942 4.67895349,12.0879959 4.33175782,12.2473703 C3.89678548,12.4470651 3.48194634,12.4652161 3.0872404,12.3019254 C2.69250045,12.1385666 2.37353208,11.7912461 2.13019923,11.2597596 C1.97284059,10.9161511 1.89203572,10.5893654 1.88778462,10.2794025 C1.88349952,9.96947374 1.96807936,9.69673232 2.14149015,9.46117826 C2.31493494,9.22559015 2.53830463,9.0450339 2.81170124,8.91954356 C3.15685638,8.76108859 3.47915762,8.71889523 3.77870699,8.79292943 C4.07822234,8.86699767 4.33250601,9.05065287 4.54166003,9.34389502 L4.05496033,9.66526608 C3.90719217,9.47442541 3.74531036,9.35411133 3.56921288,9.30439196 C3.39308139,9.25463853 3.21531748,9.27101868 3.03571709,9.3534643 C2.76436101,9.47803517 2.58846759,9.67664024 2.50810483,9.9492795 C2.42767406,10.2219528 2.48402661,10.569069 2.67702646,10.990628 C2.872747,11.4181806 3.09679687,11.6912966 3.34914204,11.809942 C3.60145321,11.9286555 3.85934181,11.9275317 4.12270582,11.8066047 C4.33413843,11.7095157 4.48098836,11.5635586 4.56322159,11.3685974 C4.64538681,11.1737724 4.64375439,10.9327356 4.55818829,10.6456232" id="Fill-9" fill="#FFFFFF"></path>
                        <path d="M5.70707981,9.6031407 C5.89368601,10.0107034 6.12219102,10.2751355 6.39259486,10.3964031 C6.66299869,10.5176367 6.93296041,10.5164448 7.20230997,10.3927934 C7.46961902,10.2700614 7.64541041,10.0660417 7.72971819,9.78073422 C7.81395794,9.49542674 7.76053015,9.14405378 7.56936677,8.72644509 C7.38915424,8.33284471 7.16330191,8.07570019 6.89191181,7.9548753 C6.62048772,7.83408446 6.35209039,7.83456122 6.08671986,7.95640775 C5.8173703,8.0800251 5.64008251,8.28353399 5.55492451,8.56683227 C5.46973251,8.85019865 5.52047362,9.19554399 5.70707981,9.6031407 M5.15341682,9.85735655 C4.88355712,9.26797762 4.84726975,8.75634482 5.04462272,8.32239002 C5.21000743,7.96120941 5.48921955,7.69030692 5.88229307,7.50985284 C6.31923791,7.30927262 6.7420011,7.28866972 7.15061663,7.44801011 C7.55919815,7.6074186 7.87925481,7.93985732 8.11065057,8.44529223 C8.298175,8.85483005 8.38431925,9.20518137 8.36908332,9.49620999 C8.35388138,9.78734077 8.25875882,10.0516367 8.08381764,10.2891319 C7.90877443,10.5265589 7.68268404,10.7090222 7.40537642,10.8363174 C6.96040551,11.0405755 6.53532972,11.0628811 6.13021709,10.903098 C5.72507046,10.743349 5.39950437,10.3948026 5.15341682,9.85735655" id="Fill-11" fill="#FFFFFF"></path>
                        <path d="M9.49132212,9.79160097 L8.0341138,6.60901608 L8.51595026,6.38783297 L8.72041109,6.83431977 C8.74880842,6.63271792 8.82406981,6.44644053 8.9462634,6.27548761 C9.06838892,6.1046028 9.235202,5.97056481 9.44670264,5.87344176 C9.68211139,5.76538725 9.89755704,5.72574797 10.0930395,5.7544558 C10.288488,5.78323174 10.4573757,5.87129633 10.5997364,6.01868363 C10.6810174,5.53167213 10.92316,5.1956577 11.326198,5.01060627 C11.6414254,4.86587521 11.9238344,4.8420031 12.1734929,4.93898994 C12.4231173,5.03597677 12.6311831,5.26621835 12.7976901,5.62985087 L13.7979564,7.8144385 L13.2622501,8.06041319 L12.344285,6.05556451 C12.2454555,5.83979604 12.1568965,5.69247685 12.0785404,5.61360694 C12.0001841,5.53473703 11.9018307,5.48743551 11.7835141,5.47163429 C11.6652316,5.45579901 11.5441943,5.47626568 11.4205384,5.53303431 C11.1970667,5.63564012 11.0455576,5.79528699 10.966079,6.01190681 C10.8865325,6.22856069 10.9218676,6.50065508 11.0718803,6.82829215 L11.918495,8.67730804 L11.3797619,8.9246449 L10.4329913,6.85686376 C10.323211,6.61708696 10.1970044,6.45747415 10.0543376,6.37788909 C9.91163674,6.29833809 9.74053851,6.30433166 9.54107698,6.39590385 C9.38939781,6.46551098 9.26754435,6.56988761 9.17544853,6.70882943 C9.0833528,6.84783935 9.04359655,7.00755433 9.05617978,7.18790626 C9.06872898,7.3683944 9.14133774,7.60340359 9.27397204,7.89307003 L10.0300213,9.54429816 L9.49132212,9.79160097 Z" id="Fill-13" fill="#FFFFFF"></path>
                    </g>
                </g>
                <path d="M45.7887634,6.27172895 C46.2163842,6.02077179 46.6772496,5.89531026 47.1715979,5.89531026 C47.910296,5.89531026 48.4631712,6.23637999 48.8297811,6.91838295 C49.196425,7.60059063 49.3797299,8.62379979 49.3797299,9.98814694 C49.3797299,11.2755862 49.1907764,12.2411315 48.8131417,12.8849193 C48.435439,13.5286731 47.8659925,13.850567 47.1051086,13.850567 C46.705186,13.850567 46.2968587,13.7649925 45.8803648,13.593707 C45.4636668,13.4224556 45.0359439,13.1655956 44.5972303,12.8229904 L44.5972303,7.40125796 C44.963704,6.89934364 45.3608023,6.52285672 45.7887634,6.27172895 L45.7887634,6.27172895 Z M41.4200014,0.630054983 L41.4200014,1.17868044 L41.577956,1.18758592 C42.2489058,1.23484298 42.6467868,1.33652243 42.7715308,1.49286311 C42.8962748,1.64920379 42.9586808,2.12549353 42.9586808,2.92197117 L42.9586808,14.7088712 L44.2894195,14.7088712 L44.4973602,13.5143424 L44.5972303,13.5143424 C44.9740823,13.9509499 45.3900998,14.2783373 45.8448744,14.4965045 C46.2994447,14.7147058 46.7902202,14.8239601 47.3169284,14.8239601 C48.4648045,14.8239601 49.3851402,14.3399249 50.078378,13.3715135 C50.7714795,12.4032385 51.1179792,11.1159358 51.1179792,9.50980994 C51.1179792,8.06326624 50.8157491,6.9118659 50.2114586,6.05564306 C49.6070321,5.19952258 48.7945969,4.77141116 47.7744591,4.77141116 C47.1256951,4.77141116 46.5364107,4.93972818 46.0069463,5.27602101 C45.4774819,5.61268917 45.0075312,6.11729902 44.5972303,6.79005529 L44.5972303,0.630054983 L41.4200014,0.630054983 Z" id="Fill-1" fill="#0E0F0F" fill-rule="nonzero"></path>
                <path d="M56.7680112,13.1000191 C56.1213228,13.5661409 55.5603151,13.7991507 55.084886,13.7991507 C54.5820309,13.7991507 54.1619302,13.6154793 53.8248219,13.2482732 C53.4876116,12.8809989 53.3190745,12.4189033 53.3190745,11.8620889 C53.3190745,11.1157686 53.5899316,10.5293716 54.1315778,10.1027615 C54.67319,9.6763902 55.4248865,9.46303397 56.3866335,9.46303397 L56.7680112,9.46303397 L56.7680112,13.1000191 Z M56.4280106,8.92324576 C54.6206858,8.92324576 53.338436,9.24827879 52.581227,9.89814014 C51.9180695,10.4653613 51.5863716,11.2039704 51.5863716,12.1137626 C51.5863716,12.8935211 51.8407935,13.5420518 52.3496034,14.0590815 C52.8584132,14.5760089 53.4946212,14.8343702 54.2578531,14.8343702 C55.2090855,14.8343702 56.1716832,14.3226634 57.1452715,13.299113 C57.3600177,14.3226634 57.8698824,14.8343702 58.6746615,14.8343702 C58.9842417,14.8343702 59.3353011,14.7606015 59.7276356,14.6129275 L59.6779558,13.9571632 C59.4955355,14.0110738 59.3491162,14.037995 59.2385275,14.037995 C58.9290494,14.037995 58.7120575,13.8816543 58.5877559,13.5686317 C58.4633181,13.2556774 58.4012183,12.7153092 58.4012183,11.9477317 L58.4012183,7.66057808 C58.4012183,5.7414638 57.4228661,4.78188959 55.4663318,4.78188959 C54.4824671,4.78188959 53.41578,5.05041887 52.2662366,5.58713623 L52.2662366,7.34813556 L53.3771591,7.34813556 L53.3853937,7.17998915 C53.4463365,6.56059753 53.5899316,6.15050179 53.8164852,5.94990667 C54.2033754,5.61961906 54.6483841,5.45444114 55.1513412,5.45444114 C56.2291212,5.45444114 56.7680112,6.2125672 56.7680112,7.7286146 L56.7680112,8.92324576 L56.4280106,8.92324576 Z" id="Fill-4" fill="#0E0F0F" fill-rule="nonzero"></path>
                <path d="M61.0914012,14.612054 L68.9571464,14.612054 L68.9571464,13.9600089 L66.4081631,13.9556756 L63.0780497,13.9556756 L68.7812934,5.51945457 L68.7812934,4.97836977 L61.3261894,4.97836977 L61.3261894,7.08067767 L62.2067472,7.08067767 L62.21522,6.8944132 C62.2263469,6.71708834 62.2318934,6.50414155 62.2318934,6.25577756 C62.2318934,5.88915149 62.3017514,5.67477163 62.4415354,5.61267211 C62.5813195,5.55057257 63.0621929,5.51945457 63.8839176,5.51945457 L66.8566086,5.51945457 L61.0914012,14.0620978 L61.0914012,14.612054 Z" id="Fill-6" fill="#0E0F0F" fill-rule="nonzero"></path>
                <path d="M74.8638358,13.1000191 C74.2160585,13.5661409 73.6541661,13.7991507 73.1780905,13.7991507 C72.6742146,13.7991507 72.2534333,13.6154793 71.9156785,13.2482732 C71.5779578,12.8809989 71.4091485,12.4189033 71.4091485,11.8620889 C71.4091485,11.1157686 71.680448,10.5293716 72.2230469,10.1027615 C72.7655437,9.6763902 73.5186014,9.46303397 74.4817775,9.46303397 L74.8638358,9.46303397 L74.8638358,13.1000191 Z M74.5233248,8.92324576 C72.7129376,8.92324576 71.428544,9.24827879 70.6700761,9.89814014 C70.0056594,10.4653613 69.6734852,11.2039704 69.6734852,12.1137626 C69.6734852,12.8935211 69.9283835,13.5420518 70.4380781,14.0590815 C70.9477386,14.5760089 71.5849334,14.8343702 72.3495944,14.8343702 C73.30229,14.8343702 74.266521,14.3226634 75.2416406,13.299113 C75.456795,14.3226634 75.9676125,14.8343702 76.7738548,14.8343702 C77.0838093,14.8343702 77.4353791,14.7606015 77.8285643,14.6129275 L77.7787824,13.9571632 C77.5960899,14.0110738 77.4492622,14.037995 77.3386055,14.037995 C77.0284469,14.037995 76.8112848,13.8816543 76.6865409,13.5686317 C76.5621371,13.2556774 76.4997992,12.7153092 76.4997992,11.9477317 L76.4997992,7.66057808 C76.4997992,5.7414638 75.5198476,4.78188959 73.5601487,4.78188959 C72.5745487,4.78188959 71.5059221,5.05041887 70.3545071,5.58713623 L70.3545071,7.34813556 L71.4673352,7.34813556 L71.4755698,7.17998915 C71.5364785,6.56059753 71.680448,6.15050179 71.9074099,5.94990667 C72.2949466,5.61961906 72.7405677,5.45444114 73.2444096,5.45444114 C74.3240271,5.45444114 74.8638358,6.2125672 74.8638358,7.7286146 L74.8638358,8.92324576 L74.5233248,8.92324576 Z" id="Fill-8" fill="#0E0F0F" fill-rule="nonzero"></path>
                <path d="M84.098488,13.1000191 C83.4517316,13.5661409 82.8906899,13.7991507 82.4153289,13.7991507 C81.9125078,13.7991507 81.492373,13.6154793 81.1553669,13.2482732 C80.8180884,12.8809989 80.6495174,12.4189033 80.6495174,11.8620889 C80.6495174,11.1157686 80.9203064,10.5293716 81.4619186,10.1027615 C82.0035647,9.6763902 82.7552613,9.46303397 83.7170083,9.46303397 L84.098488,9.46303397 L84.098488,13.1000191 Z M83.7584535,8.92324576 C81.9510266,8.92324576 80.6689129,9.24827879 79.9116018,9.89814014 C79.2485464,10.4653613 78.9168485,11.2039704 78.9168485,12.1137626 C78.9168485,12.8935211 79.1712023,13.5420518 79.6800122,14.0590815 C80.1888901,14.5760089 80.8250641,14.8343702 81.588398,14.8343702 C82.5395625,14.8343702 83.5020579,14.3226634 84.4756123,13.299113 C84.6904265,14.3226634 85.2003594,14.8343702 86.005138,14.8343702 C86.3146163,14.8343702 86.6657097,14.7606015 87.0581127,14.6129275 L87.0083307,13.9571632 C86.8259442,14.0110738 86.6794566,14.037995 86.5690042,14.037995 C86.2592544,14.037995 86.0425007,13.8816543 85.9182325,13.5686317 C85.7936928,13.2556774 85.7315255,12.7153092 85.7315255,11.9477317 L85.7315255,7.66057808 C85.7315255,5.7414638 84.7532409,4.78188959 82.7967066,4.78188959 C81.8128418,4.78188959 80.7461549,5.05041887 79.5966454,5.58713623 L79.5966454,7.34813556 L80.7076359,7.34813556 L80.7158025,7.17998915 C80.7767113,6.56059753 80.9203064,6.15050179 81.1468601,5.94990667 C81.5338522,5.61961906 81.9786568,5.45444114 82.4817501,5.45444114 C83.5595981,5.45444114 84.098488,6.2125672 84.098488,7.7286146 L84.098488,8.92324576 L83.7584535,8.92324576 Z" id="Fill-10" fill="#0E0F0F" fill-rule="nonzero"></path>
                <path d="M88.9773155,13.7635697 C88.8531159,13.9206951 88.4572086,14.0229205 87.7894913,14.0702799 L87.6321492,14.0792536 L87.6321492,14.6303016 L92.5331999,14.6303016 L92.5331999,14.0792536 L92.1771385,14.0702799 C91.5148656,14.0288574 91.1187881,13.9280311 90.9891782,13.7681418 C90.8594662,13.608082 90.7945422,13.1279707 90.7945422,12.3279787 L90.7945422,7.60752733 C91.3189025,6.66521816 91.989444,6.19411475 92.8064049,6.19411475 C93.0105005,6.19411475 93.1361292,6.24601222 93.1830868,6.34960242 C93.2299764,6.45343147 93.2837395,6.7807847 93.3445122,7.33193508 L93.3528489,7.49196079 L94.2718576,7.49196079 L94.2718576,4.85170719 C94.0675919,4.78653681 93.8826876,4.75395161 93.7171109,4.75395161 C92.5138044,4.75395161 91.5398416,5.43261075 90.7945422,6.7895537 L90.7945422,4.97611097 L87.6321492,4.97611097 L87.6321492,5.52732959 L87.7894913,5.53613271 C88.4572086,5.58959973 88.8531159,5.69329229 88.9773155,5.84741513 C89.101481,6.0015721 89.1635468,6.47854425 89.1635468,7.27860456 L89.1635468,12.3279787 C89.1635468,13.1279707 89.101481,13.6066831 88.9773155,13.7635697" id="Fill-12" fill="#0E0F0F" fill-rule="nonzero"></path>
                <path d="M4.30296685,6.28039214 C4.70806157,6.02895729 5.14466555,5.90315456 5.61288088,5.90315456 C6.31248168,5.90315456 6.83582118,6.2449067 7.18306954,6.92827448 C7.53021581,7.61184698 7.70378895,8.63689866 7.70378895,10.0039754 C7.70378895,11.2939396 7.52490756,12.2613616 7.16734894,12.9063436 C6.80958615,13.5513257 6.27045799,13.8739703 5.54976028,13.8739703 C5.17096865,13.8739703 4.7843167,13.7881229 4.38987252,13.6165302 C3.99529222,13.4449035 3.5901975,13.187634 3.1746564,12.8443124 L3.1746564,7.412139 C3.52187072,6.90916693 3.89794019,6.53186111 4.30296685,6.28039214 L4.30296685,6.28039214 Z M-2.04163658e-05,4.9987534 L-2.04163658e-05,5.54843659 L0.157968227,5.55741031 C0.828203487,5.61060436 1.22581221,5.71405808 1.35048815,5.86763499 C1.47509604,6.02138251 1.53750206,6.49719456 1.53750206,7.29513939 L1.50153523,18.1296647 L3.16836135,18.1296647 L3.1746564,13.5365174 C3.53687676,13.9740802 3.93642503,14.3022182 4.37347137,14.5209996 C4.8103816,14.7397469 5.28203367,14.8491718 5.78812135,14.8491718 C6.89118357,14.8491718 7.77548441,14.3642495 8.44170446,13.393859 C9.10768632,12.4237075 9.44081337,11.133948 9.44081337,9.52478544 C9.44081337,8.07537561 9.15032248,6.9216892 8.56961303,6.06382856 C7.98869933,5.20613853 7.20807959,4.77717409 6.22775376,4.77717409 C5.60423795,4.77717409 5.03812616,4.94572995 4.52948643,5.28280756 C4.02050643,5.61991929 3.56882837,6.12548452 3.1746564,6.79967386 L3.1746564,4.9987534 L-2.04163658e-05,4.9987534 Z" id="Fill-15" fill="#00669A" fill-rule="nonzero"></path>
                <path d="M15.6621291,13.1000191 C15.0155428,13.5661409 14.4545011,13.7991507 13.9792081,13.7991507 C13.476217,13.7991507 13.0561162,13.6154793 12.719008,13.2482732 C12.3817976,12.8809989 12.2132605,12.4189033 12.2132605,11.8620889 C12.2132605,11.1157686 12.4841176,10.5293716 13.0256618,10.1027615 C13.567376,9.6763902 14.3191746,9.46303397 15.2807514,9.46303397 L15.6621291,9.46303397 L15.6621291,13.1000191 Z M15.3222647,8.92324576 C13.5149059,8.92324576 12.232622,9.24827879 11.4755152,9.89814014 C10.8122896,10.4653613 10.4805917,11.2039704 10.4805917,12.1137626 C10.4805917,12.8935211 10.7350816,13.5420518 11.2438234,14.0590815 C11.7527354,14.5760089 12.3888073,14.8343702 13.1520391,14.8343702 C14.1033396,14.8343702 15.0659373,14.3226634 16.0393555,13.299113 C16.2541697,14.3226634 16.7640685,14.8343702 17.5689496,14.8343702 C17.8784277,14.8343702 18.2294531,14.7606015 18.6218897,14.6129275 L18.5721418,13.9571632 C18.3897556,14.0110738 18.2432681,14.037995 18.1327816,14.037995 C17.8232355,14.037995 17.6063116,13.8816543 17.4818739,13.5686317 C17.3575382,13.2556774 17.2953704,12.7153092 17.2953704,11.9477317 L17.2953704,7.66057808 C17.2953704,5.7414638 16.3171542,4.78188959 14.3606199,4.78188959 C13.3767552,4.78188959 12.3099661,5.05041887 11.1604566,5.58713623 L11.1604566,7.34813556 L12.2713451,7.34813556 L12.2795797,7.17998915 C12.3404545,6.56059753 12.4841176,6.15050179 12.7107734,5.94990667 C13.0975614,5.61961906 13.542502,5.45444114 14.0454933,5.45444114 C15.1232391,5.45444114 15.6621291,6.2125672 15.6621291,7.7286146 L15.6621291,8.92324576 L15.3222647,8.92324576 Z" id="Fill-18" fill="#00669A" fill-rule="nonzero"></path>
                <path d="M19.2234272,5.53600307 L19.3818582,5.54490855 C20.0546796,5.59800023 20.3506488,5.68289234 20.5125507,5.88662656 C20.7692864,6.20971472 20.7665302,6.4848634 20.7665302,7.28294471 L20.7202871,14.6165579 L22.4560866,14.6165579 L22.3986145,4.98618339 L19.2234272,4.98618339 L19.2234272,5.53600307 Z" id="Fill-20" fill="#00669A" fill-rule="nonzero"></path>
                <polygon id="Fill-22" fill="#00669A" fill-rule="nonzero" points="20.7665404 3.23920763 22.4097857 3.23920763 22.4097857 1.49223187 20.7665404 1.49223187"></polygon>
                <path d="M29.0393675,13.7634025 C28.7010684,14.0861835 28.2672205,14.2474376 27.7376881,14.2474376 C27.0846706,14.2474376 26.4853142,14.088026 25.9639482,13.732421 C25.1744134,13.1937929 24.3313536,11.7385484 24.3313536,11.7385484 L24.3313536,13.1863887 C25.1307223,14.3126762 26.4492794,14.7871576 27.596543,14.7871576 C28.6849053,14.7871576 29.5689,14.517127 30.2483907,13.9767587 C30.9279494,13.4365611 31.2677458,12.7382826 31.2677458,11.8822303 C31.2677458,11.2621904 31.0940706,10.7544073 30.7469924,10.3587787 C30.3940955,9.96908714 29.7732678,9.59120124 28.8850198,9.22512114 L28.073095,8.88845296 C27.2493626,8.55267194 26.702136,8.2580745 26.4316191,8.00479714 C26.1551135,7.75742264 26.0169288,7.42751036 26.0169288,7.01523091 C26.0169288,6.51454492 26.1859763,6.09919462 26.5243435,5.76931645 C26.8625405,5.43930182 27.2876774,5.2744651 27.7995497,5.2744651 C28.3407195,5.2744651 28.8025717,5.42480056 29.1850043,5.72574443 C29.314444,5.8319278 29.4084954,5.99557029 29.4674647,6.21687663 C29.5261277,6.43811473 29.5732895,6.83776956 29.6085418,7.41590935 L29.6085418,7.57518441 L30.588187,7.57518441 L30.588187,5.28330234 C29.5879893,4.91752929 28.6202195,4.73457452 27.6847757,4.73457452 C26.725785,4.73457452 25.9359098,4.98853431 25.3153203,5.49631738 C24.6945267,6.00416869 24.384266,6.64778594 24.384266,7.42710092 C24.384266,8.08852914 24.5989781,8.64950626 25.0285044,9.109964 C25.4579627,9.57649529 26.1521191,9.99566708 27.1111779,10.3675819 L28.0024883,10.7130531 C28.5789785,10.9380786 28.9820316,11.1807445 29.2114435,11.4412213 C29.4350367,11.7077034 29.5468503,12.0657993 29.5468503,12.5156455 C29.5468503,13.0248275 29.3777347,13.4406555 29.0393675,13.7634025" id="Fill-24" fill="#00669A" fill-rule="nonzero"></path>
                <path d="M37.7028482,13.1000191 C37.0561938,13.5661409 36.495152,13.7991507 36.0198591,13.7991507 C35.5168679,13.7991507 35.0967671,13.6154793 34.7596249,13.2482732 C34.4225507,12.8809989 34.2539795,12.4189033 34.2539795,11.8620889 C34.2539795,11.1157686 34.5247686,10.5293716 35.0663808,10.1027615 C35.608027,9.6763902 36.3597235,9.46303397 37.3214024,9.46303397 L37.7028482,9.46303397 L37.7028482,13.1000191 Z M37.3629157,8.92324576 C35.5555569,8.92324576 34.2733751,9.24827879 33.5161321,9.89814014 C32.8528384,10.4653613 32.5213106,11.2039704 32.5213106,12.1137626 C32.5213106,12.8935211 32.7757326,13.5420518 33.2844744,14.0590815 C33.7933523,14.5760089 34.4294242,14.8343702 35.19269,14.8343702 C36.1440586,14.8343702 37.1065882,14.3226634 38.0800746,13.299113 C38.2948888,14.3226634 38.8047194,14.8343702 39.6096006,14.8343702 C39.9191467,14.8343702 40.270002,14.7606015 40.6625406,14.6129275 L40.6127927,13.9571632 C40.4303045,14.0110738 40.2839192,14.037995 40.1733646,14.037995 C39.8637844,14.037995 39.6468605,13.8816543 39.5225928,13.5686317 C39.3982572,13.2556774 39.3359873,12.7153092 39.3359873,11.9477317 L39.3359873,7.66057808 C39.3359873,5.7414638 38.3577712,4.78188959 36.4012708,4.78188959 C35.4173722,4.78188959 34.350617,5.05041887 33.2011076,5.58713623 L33.2011076,7.34813556 L34.3119961,7.34813556 L34.3201626,7.17998915 C34.3810714,6.56059753 34.5247686,6.15050179 34.7513903,5.94990667 C35.1382124,5.61961906 35.5832211,5.45444114 36.0861102,5.45444114 C37.1638901,5.45444114 37.7028482,6.2125672 37.7028482,7.7286146 L37.7028482,8.92324576 L37.3629157,8.92324576 Z" id="Fill-25" fill="#00669A" fill-rule="nonzero"></path>
            </g>
        </g>
    </g>
</svg>