<?xml version="1.0" encoding="UTF-8"?>
<svg width="53px" height="52px" viewBox="0 0 53 52" version="1.1" xmlns="http://www.w3.org/2000/svg" xmlns:xlink="http://www.w3.org/1999/xlink">
    <!-- Generator: sketchtool 55.2 (78181) - https://sketchapp.com -->
    <title>1778630E-DB4F-47C4-8253-1B1027652803</title>
    <desc>Created with sketchtool.</desc>
    <g id="Final-Design" stroke="none" stroke-width="1" fill="none" fill-rule="evenodd">
        <g id="Dektop-White-2" transform="translate(-611.000000, -372.000000)">
            <g id="Group" transform="translate(-121.000000, 132.000000)">
                <g id="PRoducts" transform="translate(523.000000, 217.000000)">
                    <g id="pl" transform="translate(170.000000, 0.000000)">
                        <g id="Personal-Loan" transform="translate(40.000000, 24.000000)">
                            <path d="M12.7003274,24.27375 L11.3491767,16.7925 L9.64940959,7.37652778 C9.55719041,6.8675 9.89812192,6.38 10.4109164,6.28902778 L45.5764644,0.0147222222 C46.0885603,-0.07625 46.5783,0.262638889 46.6698205,0.770972222 L47.6451082,6.16958333" id="Fill-1" fill="#84EB9C"></path>
                            <path d="M49.3702356,25.2109722 L13.6422904,25.2109722 C13.1225096,25.2109722 12.700537,24.7915278 12.700537,24.2734722 L12.700537,7.10611111 C12.700537,6.58944444 13.1225096,6.16930556 13.6422904,6.16930556 L49.3702356,6.16930556 C49.8907151,6.16930556 50.3133863,6.58944444 50.3133863,7.10611111 L50.3133863,24.2734722 C50.3133863,24.7915278 49.8907151,25.2109722 49.3702356,25.2109722" id="Fill-3" fill="#84EB9C"></path>
                            <path d="M16.5182014,11.8917361 L16.5182014,20.0278472 C17.780626,20.0278472 18.8034205,20.9257639 18.8034205,22.0327083 C18.8034205,22.0688194 18.7936397,22.1028472 18.7915438,22.1396528 L44.1720781,22.1396528 C44.1699822,22.1028472 44.1595027,22.0688194 44.1595027,22.0327083 C44.1595027,20.9257639 45.1829959,20.0278472 46.4454205,20.0278472 C46.4726671,20.0278472 46.4985164,20.0340972 46.525763,20.0354861 L46.525763,11.8840972 C46.4985164,11.8847917 46.4726671,11.8917361 46.4454205,11.8917361 C45.1829959,11.8917361 44.1595027,10.9938194 44.1595027,9.886875 L18.8034205,9.886875 C18.8034205,10.9938194 17.780626,11.8917361 16.5182014,11.8917361" id="Fill-5" fill="#84EB9C"></path>
                            <path d="M6.25162192,40.704375 L12.2780055,34.4654861 C12.2780055,34.4654861 14.8384849,31.1807639 18.7612932,31.1807639 L31.5224712,31.1807639 C31.5224712,31.1807639 33.2257315,35.4022917 28.9130877,37.304375 C28.9130877,37.304375 35.0666219,37.4113194 40.2057452,34.4682639 C40.2057452,34.4682639 46.2481973,30.4279861 50.3128274,34.5217361 L39.1892384,42.866875 C39.1892384,42.866875 35.6793205,45.3571528 29.3497315,45.8925694 C28.7894301,45.9390972 28.2291288,45.9849306 27.6709233,46.0536806 L19.0107041,47.1196528 C16.4222795,47.4384028 13.816389,47.5988194 11.2084027,47.5988194 L6.25162192,47.5988194" id="Fill-7" fill="#F5D9BA"></path>
                            <g id="Group-12" transform="translate(0.000000, 37.972083)">
                                <path d="M0.000139726027,0.141041667 L3.89919452,0.141041667 C5.19794795,0.141041667 6.25148219,1.22993056 6.25148219,2.57368056 L6.25148219,9.37298611 C6.25148219,10.7167361 5.19794795,11.805625 3.89919452,11.805625 L0.000139726027,11.805625" id="Fill-9" fill="#ED6262"></path>
                                <path d="M0.000139726027,0.141041667 L3.89919452,0.141041667 C5.19794795,0.141041667 6.25148219,1.22993056 6.25148219,2.57368056 L6.25148219,9.37298611 C6.25148219,10.7167361 5.19794795,11.805625 3.89919452,11.805625 L0.000139726027,11.805625" id="Stroke-11" stroke="#052F5F" stroke-width="1.39999998" stroke-linecap="round" stroke-linejoin="round"></path>
                            </g>
                            <path d="M6.25162192,40.704375 L12.2780055,34.4654861 C12.2780055,34.4654861 14.8384849,31.1807639 18.7612932,31.1807639 L31.5224712,31.1807639 C31.5224712,31.1807639 33.2257315,35.4022917 28.9130877,37.304375 C28.9130877,37.304375 35.0666219,37.4113194 40.2057452,34.4682639 C40.2057452,34.4682639 46.2481973,30.4279861 50.3128274,34.5217361 L39.1892384,42.866875 C39.1892384,42.866875 35.6793205,45.3571528 29.3497315,45.8925694 C28.7894301,45.9390972 28.2291288,45.9849306 27.6709233,46.0536806 L19.0107041,47.1196528 C16.4222795,47.4384028 13.816389,47.5988194 11.2084027,47.5988194 L6.25162192,47.5988194" id="Stroke-13" stroke="#052F5F" stroke-width="1.39999998" stroke-linecap="round" stroke-linejoin="round"></path>
                            <path d="M19.5453658,37.2328472 L28.9125986,37.3050694" id="Stroke-15" stroke="#052F5F" stroke-width="1.39999998" stroke-linecap="round" stroke-linejoin="round"></path>
                            <path d="M49.3702356,25.2109722 L13.6422904,25.2109722 C13.1225096,25.2109722 12.700537,24.7915278 12.700537,24.2734722 L12.700537,7.10611111 C12.700537,6.58944444 13.1225096,6.16930556 13.6422904,6.16930556 L49.3702356,6.16930556 C49.8907151,6.16930556 50.3133863,6.58944444 50.3133863,7.10611111 L50.3133863,24.2734722 C50.3133863,24.7915278 49.8907151,25.2109722 49.3702356,25.2109722 Z" id="Stroke-17" stroke="#1B325E" stroke-width="1.39999998" stroke-linecap="round" stroke-linejoin="round"></path>
                            <path d="M16.5182014,11.8917361 L16.5182014,20.0278472 C17.780626,20.0278472 18.8034205,20.9257639 18.8034205,22.0327083 C18.8034205,22.0688194 18.7936397,22.1028472 18.7915438,22.1396528 L44.1720781,22.1396528 C44.1699822,22.1028472 44.1595027,22.0688194 44.1595027,22.0327083 C44.1595027,20.9257639 45.1829959,20.0278472 46.4454205,20.0278472 C46.4726671,20.0278472 46.4985164,20.0340972 46.525763,20.0354861 L46.525763,11.8840972 C46.4985164,11.8847917 46.4726671,11.8917361 46.4454205,11.8917361 C45.1829959,11.8917361 44.1595027,10.9938194 44.1595027,9.886875 L18.8034205,9.886875 C18.8034205,10.9938194 17.780626,11.8917361 16.5182014,11.8917361 Z" id="Stroke-19" stroke="#1B325E" stroke-width="1.39999998" stroke-linecap="round" stroke-linejoin="round"></path>
                            <path d="M23.9657384,16.0129167 C23.9657384,16.8288889 23.3006425,17.4893056 22.4804507,17.4893056 C21.6602589,17.4893056 20.995163,16.8288889 20.995163,16.0129167 C20.995163,15.1976389 21.6602589,14.5365278 22.4804507,14.5365278 C23.3006425,14.5365278 23.9657384,15.1976389 23.9657384,16.0129167" id="Fill-21" fill="#052F5F"></path>
                            <path d="M41.7889808,16.0129167 C41.7889808,16.8288889 41.1245836,17.4893056 40.3036932,17.4893056 C39.4835014,17.4893056 38.8184055,16.8288889 38.8184055,16.0129167 C38.8184055,15.1976389 39.4835014,14.5365278 40.3036932,14.5365278 C41.1245836,14.5365278 41.7889808,15.1976389 41.7889808,16.0129167" id="Fill-23" fill="#052F5F"></path>
                            <path d="M28.9100137,12.2138194 L33.7068082,12.2138194" id="Stroke-25" stroke="#052F5F" stroke-width="1.39999998" stroke-linecap="round" stroke-linejoin="round"></path>
                            <path d="M28.9100137,14.5155556 L33.7068082,14.5155556" id="Stroke-27" stroke="#052F5F" stroke-width="1.39999998" stroke-linecap="round" stroke-linejoin="round"></path>
                            <path d="M30.3284425,12.2138194 C31.4504425,12.2138194 32.3600589,13.3159028 32.3600589,14.675625 C32.3600589,16.0353472 31.4504425,16.7429861 30.3284425,16.7429861 L28.9102233,16.7429861 L32.4054699,20.188125" id="Stroke-29" stroke="#052F5F" stroke-width="1.39999998" stroke-linecap="round" stroke-linejoin="round"></path>
                            <path d="M12.7003274,24.27375 L11.3491767,16.7925 L9.64940959,7.37652778 C9.55719041,6.8675 9.89812192,6.38 10.4109164,6.28902778 L45.5764644,0.0147222222 C46.0885603,-0.07625 46.5783,0.262638889 46.6698205,0.770972222 L47.6451082,6.16958333" id="Stroke-31" stroke="#1B325E" stroke-width="1.39999998" stroke-linecap="round" stroke-linejoin="round"></path>
                        </g>
                    </g>
                </g>
            </g>
        </g>
    </g>
</svg>