<?xml version="1.0" encoding="UTF-8"?>
<svg width="53px" height="47px" viewBox="0 0 53 47" version="1.1" xmlns="http://www.w3.org/2000/svg" xmlns:xlink="http://www.w3.org/1999/xlink">
    <!-- Generator: sketchtool 55.2 (78181) - https://sketchapp.com -->
    <title>40AFF079-B894-4CFE-9DEB-812BFF80BF0D</title>
    <desc>Created with sketchtool.</desc>
    <g id="Final-Design" stroke="none" stroke-width="1" fill="none" fill-rule="evenodd">
        <g id="Dektop-White-2" transform="translate(-441.000000, -545.000000)">
            <g id="Group" transform="translate(-121.000000, 132.000000)">
                <g id="PRoducts" transform="translate(523.000000, 217.000000)">
                    <g id="Savings" transform="translate(0.000000, 170.000000)">
                        <g id="savings" transform="translate(40.000000, 27.000000)">
                            <path d="M11.5209699,6.76924615 C11.5209699,10.5070154 14.5795726,13.5379385 18.3514767,13.5379385 C22.1247781,13.5379385 25.1833808,10.5070154 25.1833808,6.76924615 C25.1833808,3.03078462 22.1247781,0.000553846154 18.3514767,0.000553846154 C14.5795726,0.000553846154 11.5209699,3.03078462 11.5209699,6.76924615" id="Fill-1" fill="#FFFFFF"></path>
                            <path d="M39.5917192,36.4173923 L40.9868836,43.2878538 C41.1384863,44.0376231 40.5607192,44.7368538 39.7894315,44.7368538 L33.9446918,44.7368538 C33.4381849,44.7368538 32.984774,44.4267 32.8038288,43.9587 L31.1229247,39.5985462" id="Fill-3" fill="#FFC8C8"></path>
                            <path d="M21.6197384,39.4611231 L20.785574,43.7478923 C20.6737932,44.3218154 20.1665877,44.7365077 19.5762452,44.7365077 L12.5983274,44.7365077 C11.7439027,44.7365077 11.1493685,43.8946615 11.4420945,43.0998923 L13.8970808,36.4177385" id="Fill-5" fill="#FFC8C8"></path>
                            <path d="M46.3091877,23.3568692 L50.3437767,23.3568692 L50.3437767,31.6548692 L44.5192973,31.6548692 C44.5192973,31.6548692 47.1405575,27.9551769 46.3091877,23.3568692" id="Fill-7" fill="#FFC8C8"></path>
                            <path d="M34.9837644,11.8966154 C34.9837644,11.8966154 40.0872575,7.81476923 46.4790247,9.44307692 C46.4790247,9.44307692 42.6505315,13.6557692 42.5296685,16.4333077 C42.5296685,16.4333077 39.2069836,13.2604615 34.9837644,11.8966154" id="Fill-9" fill="#FFC8C8"></path>
                            <path d="M7.01396712,25.2600231 C7.01396712,33.3807923 15.8488438,39.9646385 26.7467753,39.9646385 C37.6447068,39.9646385 46.4788849,33.3807923 46.4788849,25.2600231 C46.4788849,17.1392538 37.6447068,10.5554077 26.7467753,10.5554077 C15.8488438,10.5554077 7.01396712,17.1392538 7.01396712,25.2600231" id="Fill-11" fill="#FFC8C8"></path>
                            <path d="M34.6350781,11.7776077 C32.9248315,11.2203 31.0874342,10.8402231 29.1648041,10.6650692" id="Stroke-13" stroke="#1B325E" stroke-width="1.39999998" stroke-linecap="round" stroke-linejoin="round"></path>
                            <path d="M46.2845959,23.1851769 C45.8304863,20.7870231 44.5988014,18.5744077 42.7865548,16.6934077" id="Stroke-15" stroke="#1B325E" stroke-width="1.39999998" stroke-linecap="round" stroke-linejoin="round"></path>
                            <path d="M34.9837644,11.8966154 C34.9837644,11.8966154 40.0872575,7.81476923 46.4790247,9.44307692 C46.4790247,9.44307692 42.6505315,13.6557692 42.5296685,16.4333077" id="Stroke-17" stroke="#1B325E" stroke-width="1.39999998" stroke-linecap="round" stroke-linejoin="round"></path>
                            <path d="M46.3091877,23.3568692 L48.3498863,23.3568692 C49.4509274,23.3568692 50.3437767,24.2409462 50.3437767,25.3327154 L50.3437767,29.6797154 C50.3437767,30.7707923 49.4509274,31.6548692 48.3498863,31.6548692 L44.5192973,31.6548692" id="Stroke-19" stroke="#1B325E" stroke-width="1.39999998" stroke-linecap="round" stroke-linejoin="round"></path>
                            <path d="M39.5917192,36.4173923 L40.9868836,43.2878538 C41.1384863,44.0376231 40.5607192,44.7368538 39.7894315,44.7368538 L33.9446918,44.7368538 C33.4381849,44.7368538 32.984774,44.4267 32.8038288,43.9587 L31.1229247,39.5985462" id="Stroke-21" stroke="#1B325E" stroke-width="1.39999998" stroke-linecap="round" stroke-linejoin="round"></path>
                            <path d="M21.6197384,39.4611231 L20.785574,43.7478923 C20.6737932,44.3218154 20.1665877,44.7365077 19.5762452,44.7365077 L12.5983274,44.7365077 C11.7439027,44.7365077 11.1493685,43.8946615 11.4420945,43.0998923 L13.8970808,36.4177385" id="Stroke-23" stroke="#1B325E" stroke-width="1.39999998" stroke-linecap="round" stroke-linejoin="round"></path>
                            <path d="M31.8801699,17.5668923 C31.8801699,17.5668923 25.5338137,14.2763538 18.8185808,17.5668923" id="Stroke-25" stroke="#1B325E" stroke-width="1.39999998" stroke-linecap="round" stroke-linejoin="round"></path>
                            <path d="M-0.000279452055,20.1265615 C-0.000279452055,20.1265615 1.32781644,24.8314846 4.79651507,23.3568692 C4.79651507,23.3568692 6.6981863,22.3841769 7.29481644,22.7905615" id="Stroke-27" stroke="#1B325E" stroke-width="1.39999998" stroke-linecap="round" stroke-linejoin="round"></path>
                            <path d="M39.0643233,22.3961538 C39.5757205,23.2746923 40.4049945,23.7496154 40.9149945,23.4574615 C41.4263918,23.1653077 41.4249945,22.2161538 40.9128986,21.3383077 C40.4015014,20.4597692 39.5736247,19.9855385 39.0622274,20.277 C38.5522274,20.5691538 38.552926,21.5176154 39.0643233,22.3961538" id="Fill-29" fill="#052F5F"></path>
                            <path d="M11.5209699,6.76924615 C11.5209699,10.5070154 14.5795726,13.5379385 18.3514767,13.5379385 C22.1247781,13.5379385 25.1833808,10.5070154 25.1833808,6.76924615 C25.1833808,3.03078462 22.1247781,0.000553846154 18.3514767,0.000553846154 C14.5795726,0.000553846154 11.5209699,3.03078462 11.5209699,6.76924615 Z" id="Stroke-31" stroke="#1B325E" stroke-width="1.39999998" fill="#FFD032" stroke-linecap="round" stroke-linejoin="round"></path>
                            <path d="M39.8604822,36.2477077 C39.9331397,36.1999385 40.0050986,36.1507846 40.0777562,36.1016308 C41.9109616,34.8492462 43.4255918,33.3420923 44.5203452,31.6556308" id="Stroke-33" stroke="#1B325E" stroke-width="1.39999998" stroke-linecap="round" stroke-linejoin="round"></path>
                            <path d="M21.6190397,39.4632 C23.2545329,39.7906615 24.973163,39.9651231 26.7469849,39.9651231 C28.0576151,39.9651231 29.3382041,39.8695846 30.5768753,39.6875077 C30.7599164,39.6605077 30.9422589,39.6321231 31.1232041,39.6016615" id="Stroke-35" stroke="#1B325E" stroke-width="1.39999998" stroke-linecap="round" stroke-linejoin="round"></path>
                            <path d="M12.2707397,15.2669077 C9.00813699,17.8900615 7.01424658,21.4014462 7.01424658,25.2603692 C7.01424658,29.7236769 9.6830137,33.7224462 13.8957534,36.4196769" id="Stroke-37" stroke="#1B325E" stroke-width="1.39999998" stroke-linecap="round" stroke-linejoin="round"></path>
                            <path d="M16.1862123,3.17921538 L20.5177192,3.17921538" id="Stroke-39" stroke="#052F5F" stroke-width="1.39999998" stroke-linecap="round" stroke-linejoin="round"></path>
                            <path d="M16.1862123,5.25143077 L20.5177192,5.25143077" id="Stroke-41" stroke="#052F5F" stroke-width="1.39999998" stroke-linecap="round" stroke-linejoin="round"></path>
                            <path d="M17.4668014,3.17921538 C18.4805137,3.17921538 19.3021027,4.17198462 19.3021027,5.39529231 C19.3021027,6.61998462 18.4805137,7.2576 17.4668014,7.2576 L16.1862123,7.2576 L19.3426233,10.3584462" id="Stroke-43" stroke="#052F5F" stroke-width="1.39999998" stroke-linecap="round" stroke-linejoin="round"></path>
                        </g>
                    </g>
                </g>
            </g>
        </g>
    </g>
</svg>