<?xml version="1.0" encoding="UTF-8"?>
<svg width="52px" height="50px" viewBox="0 0 52 50" version="1.1" xmlns="http://www.w3.org/2000/svg" xmlns:xlink="http://www.w3.org/1999/xlink">
    <!-- Generator: sketchtool 55.2 (78181) - https://sketchapp.com -->
    <title>04D23131-337C-4906-8419-692B3EA698E4</title>
    <desc>Created with sketchtool.</desc>
    <g id="Final-Design" stroke="none" stroke-width="1" fill="none" fill-rule="evenodd">
        <g id="Dektop-White-2" transform="translate(-611.000000, -544.000000)">
            <g id="Group" transform="translate(-121.000000, 132.000000)">
                <g id="PRoducts" transform="translate(523.000000, 217.000000)">
                    <g id="STPL" transform="translate(170.000000, 170.000000)">
                        <g id="Short-Term-Personal-Loan" transform="translate(40.000000, 26.000000)">
                            <path d="M40.7382411,11.1641647 C40.7382411,17.3293412 35.7912411,22.3276941 29.6894055,22.3276941 C23.5861726,22.3276941 18.6391726,17.3293412 18.6391726,11.1641647 C18.6391726,4.99828235 23.5861726,-7.05882353e-05 29.6894055,-7.05882353e-05 C35.7912411,-7.05882353e-05 40.7382411,4.99828235 40.7382411,11.1641647" id="Fill-1" fill="#FFD032"></path>
                            <g id="Group-6" transform="translate(5.589041, 28.737529)">
                                <path d="M0.662510959,9.83611765 L6.68889452,3.49447059 C6.68889452,3.49447059 9.24937397,0.155647059 13.1721822,0.155647059 L25.9333603,0.155647059 C25.9333603,0.155647059 27.6373192,4.44670588 23.3246753,6.38011765 C23.3246753,6.38011765 29.477511,6.48882353 34.6166342,3.49729412 C34.6166342,3.49729412 40.6597849,-0.609529412 44.7237164,3.55164706 L33.6001274,12.0342353 C33.6001274,12.0342353 30.0902096,14.5655294 23.7606205,15.1097647 C23.2003192,15.1570588 22.6400178,15.2036471 22.0818123,15.2735294 L13.4215932,16.3570588 C10.8331685,16.6810588 8.22727808,16.8441176 5.61929178,16.8441176 L0.662510959,16.8441176" id="Fill-3" fill="#F5D9BA"></path>
                                <path d="M0.662510959,9.83611765 L6.68889452,3.49447059 C6.68889452,3.49447059 9.24937397,0.155647059 13.1721822,0.155647059 L25.9333603,0.155647059 C25.9333603,0.155647059 27.6373192,4.44670588 23.3246753,6.38011765 C23.3246753,6.38011765 29.477511,6.48882353 34.6166342,3.49729412 C34.6166342,3.49729412 40.6597849,-0.609529412 44.7237164,3.55164706 L33.6001274,12.0342353 C33.6001274,12.0342353 30.0902096,14.5655294 23.7606205,15.1097647 C23.2003192,15.1570588 22.6400178,15.2036471 22.0818123,15.2735294 L13.4215932,16.3570588 C10.8331685,16.6810588 8.22727808,16.8441176 5.61929178,16.8441176 L0.662510959,16.8441176" id="Stroke-5" stroke="#1B325E" stroke-width="1.39999998" stroke-linecap="round" stroke-linejoin="round"></path>
                            </g>
                            <g id="Group-10" transform="translate(0.000000, 35.796353)">
                                <path d="M0,0.143364706 L3.89905479,0.143364706 C5.19780822,0.143364706 6.25134247,1.25018824 6.25134247,2.61607059 L6.25134247,9.52736471 C6.25134247,10.8932471 5.19780822,12.0000706 3.89905479,12.0000706 L0,12.0000706" id="Fill-7" fill="#ED6262"></path>
                                <path d="M0,0.143364706 L3.89905479,0.143364706 C5.19780822,0.143364706 6.25134247,1.25018824 6.25134247,2.61607059 L6.25134247,9.52736471 C6.25134247,10.8932471 5.19780822,12.0000706 3.89905479,12.0000706 L0,12.0000706" id="Stroke-9" stroke="#1B325E" stroke-width="1.39999998" stroke-linecap="round" stroke-linejoin="round"></path>
                            </g>
                            <path d="M6.25155205,38.5736471 L12.2779356,32.232 C12.2779356,32.232 14.8384151,28.8931765 18.7612233,28.8931765 L31.5224014,28.8931765 C31.5224014,28.8931765 33.2263603,33.1842353 28.9137164,35.1176471 C28.9137164,35.1176471 35.0665521,35.2263529 40.2056753,32.2348235 C40.2056753,32.2348235 46.248826,28.128 50.3127575,32.2891765 L39.1891685,40.7717647 C39.1891685,40.7717647 35.6792507,43.3030588 29.3496616,43.8472941 C28.7893603,43.8945882 28.2290589,43.9411765 27.6708534,44.0110588 L19.0106342,45.0945882 C16.4222096,45.4185882 13.8163192,45.5816471 11.2083329,45.5816471 L6.25155205,45.5816471" id="Stroke-11" stroke="#1B325E" stroke-width="1.39999998" stroke-linecap="round" stroke-linejoin="round"></path>
                            <path d="M19.5452959,35.0449412 L28.9132274,35.1183529" id="Stroke-13" stroke="#1B325E" stroke-width="1.39999998" stroke-linecap="round" stroke-linejoin="round"></path>
                            <path d="M40.7382411,11.1641647 C40.7382411,17.3293412 35.7912411,22.3276941 29.6894055,22.3276941 C23.5861726,22.3276941 18.6391726,17.3293412 18.6391726,11.1641647 C18.6391726,4.99828235 23.5861726,-7.05882353e-05 29.6894055,-7.05882353e-05 C35.7912411,-7.05882353e-05 40.7382411,4.99828235 40.7382411,11.1641647 Z" id="Stroke-15" stroke="#1B325E" stroke-width="1.39999998" stroke-linecap="round" stroke-linejoin="round"></path>
                            <path d="M26.8665904,6.39465882 L32.5108233,6.39465882" id="Stroke-17" stroke="#052F5F" stroke-width="1.39999998" stroke-linecap="round" stroke-linejoin="round"></path>
                            <path d="M26.8665904,9.14788235 L32.5108233,9.14788235" id="Stroke-19" stroke="#052F5F" stroke-width="1.39999998" stroke-linecap="round" stroke-linejoin="round"></path>
                            <path d="M28.5354082,6.39465882 C29.8565178,6.39465882 30.9268192,7.71254118 30.9268192,9.3396 C30.9268192,10.9659529 29.8565178,11.8130118 28.5354082,11.8130118 L26.8663808,11.8130118 L30.9792164,15.9332471" id="Stroke-21" stroke="#052F5F" stroke-width="1.39999998" stroke-linecap="round" stroke-linejoin="round"></path>
                        </g>
                    </g>
                </g>
            </g>
        </g>
    </g>
</svg>